<svg width="73" height="72" viewBox="0 0 73 72" fill="none" xmlns="http://www.w3.org/2000/svg">
<path d="M44.76 13.97H27.8501C20.3501 13.97 14.27 20.05 14.27 27.55V44.46C14.27 51.96 20.3501 58.03 27.8501 58.03H44.76C52.26 58.03 58.3301 51.95 58.3301 44.46V27.55C58.3301 20.05 52.25 13.97 44.76 13.97ZM54.1001 42.83C54.1001 48.89 49.1901 53.8 43.1301 53.8H29.47C23.41 53.8 18.5 48.89 18.5 42.83V29.17C18.5 23.12 23.41 18.2 29.47 18.2H43.1301C49.1901 18.2 54.1001 23.11 54.1001 29.17V42.83Z" fill="url(#paint0_radial_175_41)"/>
<path d="M36.9001 24.47C30.4901 24.47 25.29 29.66 25.29 36.07C25.29 42.48 30.4901 47.67 36.9001 47.67C43.3101 47.67 48.5 42.47 48.5 36.07C48.5 29.67 43.3001 24.47 36.9001 24.47ZM36.9001 43.06C33.0401 43.06 29.9199 39.93 29.9199 36.08C29.9199 32.23 33.0401 29.1 36.9001 29.1C40.7601 29.1 43.8801 32.22 43.8801 36.08C43.8801 39.94 40.7501 43.06 36.9001 43.06Z" fill="url(#paint1_radial_175_41)"/>
<path d="M50.6501 24.29C50.6501 25.92 49.33 27.24 47.7 27.24C46.07 27.24 44.75 25.92 44.75 24.29C44.75 22.66 46.07 21.34 47.7 21.34C49.33 21.34 50.6501 22.66 50.6501 24.29Z" fill="url(#paint2_radial_175_41)"/>
<defs>
<radialGradient id="paint0_radial_175_41" cx="0" cy="0" r="1" gradientUnits="userSpaceOnUse" gradientTransform="translate(14.67 53.37) scale(54.0201 54.02)">
<stop offset="0.1" stop-color="#FFD879"/>
<stop offset="0.15" stop-color="#FCCB75"/>
<stop offset="0.26" stop-color="#F4AA6C"/>
<stop offset="0.4" stop-color="#E8745D"/>
<stop offset="0.45" stop-color="#E45F58"/>
<stop offset="0.68" stop-color="#D22A9C"/>
<stop offset="1" stop-color="#6968DF"/>
</radialGradient>
<radialGradient id="paint1_radial_175_41" cx="0" cy="0" r="1" gradientUnits="userSpaceOnUse" gradientTransform="translate(14.6701 53.36) scale(54.0199 54.02)">
<stop offset="0.1" stop-color="#FFD879"/>
<stop offset="0.15" stop-color="#FCCB75"/>
<stop offset="0.26" stop-color="#F4AA6C"/>
<stop offset="0.4" stop-color="#E8745D"/>
<stop offset="0.45" stop-color="#E45F58"/>
<stop offset="0.68" stop-color="#D22A9C"/>
<stop offset="1" stop-color="#6968DF"/>
</radialGradient>
<radialGradient id="paint2_radial_175_41" cx="0" cy="0" r="1" gradientUnits="userSpaceOnUse" gradientTransform="translate(14.6693 53.37) scale(54.0213 54.0199)">
<stop offset="0.1" stop-color="#FFD879"/>
<stop offset="0.15" stop-color="#FCCB75"/>
<stop offset="0.26" stop-color="#F4AA6C"/>
<stop offset="0.4" stop-color="#E8745D"/>
<stop offset="0.45" stop-color="#E45F58"/>
<stop offset="0.68" stop-color="#D22A9C"/>
<stop offset="1" stop-color="#6968DF"/>
</radialGradient>
</defs>
</svg>
