<svg width="33" height="32" viewBox="0 0 33 32" fill="none" xmlns="http://www.w3.org/2000/svg">
<path d="M16.94 29.4286C24.3564 29.4286 30.3686 23.4164 30.3686 16C30.3686 8.5836 24.3564 2.57142 16.94 2.57142C9.52365 2.57142 3.51147 8.5836 3.51147 16C3.51147 23.4164 9.52365 29.4286 16.94 29.4286Z" fill="#F2F2F2"/>
<path d="M16.9401 2.85714C24.1858 2.85714 30.083 8.75428 30.083 16C30.083 23.2457 24.1858 29.1429 16.9401 29.1429C9.6944 29.1429 3.79726 23.2457 3.79726 16C3.79726 8.75428 9.6944 2.85714 16.9401 2.85714ZM16.9401 2.28571C9.36869 2.28571 3.22583 8.42857 3.22583 16C3.22583 23.5714 9.36869 29.7143 16.9401 29.7143C24.5115 29.7143 30.6544 23.5714 30.6544 16C30.6544 8.42857 24.5115 2.28571 16.9401 2.28571Z" fill="#DBDBDB"/>
</svg>
