<svg width="72" height="72" viewBox="0 0 72 72" fill="none" xmlns="http://www.w3.org/2000/svg">
<path d="M36.5379 18C37.7128 18.0068 40.6521 18.036 43.7763 18.1643L44.8851 18.2138C48.0291 18.3645 51.1709 18.6255 52.7307 19.0688C54.8098 19.6674 56.4423 21.409 56.9945 23.6186C57.8746 27.1288 57.9846 33.9737 57.9978 35.6321L58 35.9741V36.3656C57.9846 38.024 57.8746 44.8712 56.9945 48.3791C56.4357 50.5955 54.801 52.3394 52.7307 52.9289C51.1709 53.3722 48.0291 53.6332 44.8851 53.784L43.7763 53.8357C40.6521 53.9617 37.7128 53.9932 36.5379 53.9977L36.0209 54H35.4599C32.9737 53.9843 22.576 53.8695 19.2671 52.9289C17.1902 52.3304 15.5555 50.5888 15.0033 48.3791C14.1232 44.8689 14.0132 38.024 14 36.3656V35.6321C14.0132 33.9737 14.1232 27.1266 15.0033 23.6186C15.5621 21.4022 17.1968 19.6584 19.2693 19.0711C22.576 18.1283 32.9759 18.0135 35.4621 18H36.5379ZM31.5987 28.1256V43.8766L44.7993 36.0011L31.5987 28.1256Z" fill="#FF0000"/>
</svg>
