<svg width="20" height="20" viewBox="0 0 20 20" fill="none" xmlns="http://www.w3.org/2000/svg">
<path d="M16.8334 5.83335V4.16669H15.1667V3.33335H16.8334V1.66669H17.6667V3.33335H19.3334V4.16669H17.6667V5.83335H16.8334ZM10.1667 13.9417C11.0372 13.9417 11.7734 13.6417 12.375 13.0417C12.975 12.44 13.275 11.7039 13.275 10.8334C13.275 9.9628 12.975 9.22669 12.375 8.62502C11.7728 8.02502 11.0367 7.72502 10.1667 7.72502C9.29669 7.72502 8.56058 8.02502 7.95835 8.62502C7.35835 9.22669 7.05835 9.9628 7.05835 10.8334C7.05835 11.7039 7.35863 12.44 7.95919 13.0417C8.5603 13.6417 9.29613 13.9417 10.1667 13.9417ZM10.1667 13.1084C9.51946 13.1084 8.97835 12.8911 8.54335 12.4567C8.10835 12.0222 7.89085 11.4811 7.89085 10.8334C7.89085 10.1861 8.10835 9.64502 8.54335 9.21002C8.97835 8.77502 9.51946 8.55752 10.1667 8.55752C10.8139 8.55752 11.355 8.77502 11.79 9.21002C12.225 9.64502 12.4425 10.1861 12.4425 10.8334C12.4425 11.4806 12.225 12.0217 11.79 12.4567C11.355 12.8917 10.8139 13.1092 10.1667 13.1092M4.01252 16.6667C3.62919 16.6667 3.30919 16.5384 3.05252 16.2817C2.7953 16.0245 2.66669 15.7042 2.66669 15.3209V6.34585C2.66669 5.96252 2.7953 5.64252 3.05252 5.38585C3.30919 5.12863 3.62919 5.00002 4.01252 5.00002H6.47752L8.01919 3.33335H13.1792V6.15419H14.8459V7.82085H17.6667V15.3209C17.6667 15.7042 17.5384 16.0242 17.2817 16.2809C17.0245 16.5381 16.7042 16.6667 16.3209 16.6667H4.01252Z" fill="#6F6F6F"/>
</svg>
