<svg width="32" height="32" viewBox="0 0 32 32" fill="none" xmlns="http://www.w3.org/2000/svg">
<path d="M13.8485 20.2677C13.6583 20.2677 13.4759 20.3432 13.3414 20.4777C13.2069 20.6122 13.1313 20.7946 13.1313 20.9848C13.1313 21.175 13.2069 21.3574 13.3414 21.4919C13.4759 21.6264 13.6583 21.702 13.8485 21.702H18.1515C18.3417 21.702 18.5241 21.6264 18.6586 21.4919C18.7931 21.3574 18.8687 21.175 18.8687 20.9848C18.8687 20.7946 18.7931 20.6122 18.6586 20.4777C18.5241 20.3432 18.3417 20.2677 18.1515 20.2677H13.8485ZM8.29045 8.11115C7.67228 8.11115 7.07943 8.35671 6.64233 8.79382C6.20522 9.23093 5.95965 9.82377 5.95965 10.4419V21.558C5.95965 22.1762 6.20522 22.7691 6.64233 23.2062C7.07943 23.6433 7.67228 23.8888 8.29045 23.8888H23.7096C24.3277 23.8888 24.9206 23.6433 25.3577 23.2062C25.7948 22.7691 26.0403 22.1762 26.0403 21.558V10.4419C26.0403 9.82377 25.7948 9.23093 25.3577 8.79382C24.9206 8.35671 24.3277 8.11115 23.7096 8.11115H8.29045ZM7.05011 10.0981C7.05011 9.60322 7.45173 9.20161 7.94657 9.20161H24.0487C24.5436 9.20161 24.9452 9.60322 24.9452 10.0981V21.879C24.9452 22.3739 24.5436 22.7755 24.0487 22.7755H7.94657C7.45173 22.7755 7.05011 22.3739 7.05011 21.879L7.05011 10.0981Z" fill="#181818"/>
</svg>
