<svg width="183" height="17" viewBox="0 0 183 17" fill="none" xmlns="http://www.w3.org/2000/svg">
<path d="M170.278 0.619995H178.038C178.651 0.619995 179.244 0.706662 179.818 0.879995C180.391 1.05333 180.898 1.31333 181.338 1.66C181.778 2.00666 182.131 2.44666 182.398 2.98C182.664 3.5 182.798 4.12 182.798 4.84C182.798 5.54666 182.678 6.14 182.438 6.62C182.211 7.1 181.891 7.5 181.478 7.82C181.078 8.14 180.591 8.4 180.018 8.6C179.458 8.78666 178.851 8.95333 178.198 9.1L172.278 10.52V16.16H170.278V0.619995ZM180.818 4.84C180.818 4.42666 180.738 4.06 180.578 3.74C180.418 3.42 180.198 3.15333 179.918 2.94C179.638 2.71333 179.304 2.54666 178.918 2.44C178.544 2.32 178.131 2.26 177.678 2.26H172.278V8.7L177.418 7.62C178.578 7.36666 179.431 7.03333 179.978 6.62C180.538 6.19333 180.818 5.6 180.818 4.84Z" fill="white"/>
<path d="M160.82 16.56C159.874 16.56 159 16.4 158.2 16.08C157.414 15.7733 156.734 15.34 156.16 14.78C155.587 14.2333 155.14 13.5867 154.82 12.84C154.5 12.08 154.34 11.2667 154.34 10.4V0.619995H156.34V10.2C156.34 10.8 156.434 11.38 156.62 11.94C156.82 12.4867 157.107 12.9733 157.48 13.4C157.867 13.8267 158.334 14.1667 158.88 14.42C159.44 14.6733 160.087 14.8 160.82 14.8C161.554 14.8 162.194 14.6733 162.74 14.42C163.3 14.1667 163.767 13.8267 164.14 13.4C164.514 12.9733 164.794 12.4867 164.98 11.94C165.18 11.38 165.28 10.8 165.28 10.2V0.619995H167.28V10.4C167.28 11.2667 167.12 12.08 166.8 12.84C166.48 13.5867 166.034 14.2333 165.46 14.78C164.9 15.34 164.22 15.7733 163.42 16.08C162.634 16.4 161.767 16.56 160.82 16.56Z" fill="white"/>
<path d="M149.725 16.16L142.825 8.96V16.16H140.825V0.619995H142.825V7.04L149.625 0.619995H152.225L144.485 7.94L152.345 16.16H149.725Z" fill="white"/>
<path d="M125.629 0.619995H133.389C134.003 0.619995 134.596 0.706662 135.169 0.879995C135.743 1.05333 136.249 1.31333 136.689 1.66C137.129 2.00666 137.483 2.44666 137.749 2.98C138.016 3.5 138.149 4.12 138.149 4.84C138.149 5.42666 138.069 5.93333 137.909 6.36C137.749 6.78666 137.523 7.15333 137.229 7.46C136.949 7.76666 136.603 8.02666 136.189 8.24C135.789 8.44 135.349 8.61333 134.869 8.76L138.829 16.16H136.729L132.969 9.24L127.629 10.52V16.16H125.629V0.619995ZM136.169 4.84C136.169 4.42666 136.089 4.06 135.929 3.74C135.769 3.42 135.549 3.15333 135.269 2.94C134.989 2.71333 134.656 2.54666 134.269 2.44C133.896 2.32 133.483 2.26 133.029 2.26H127.629V8.7L132.769 7.62C133.929 7.36666 134.783 7.03333 135.329 6.62C135.889 6.19333 136.169 5.6 136.169 4.84Z" fill="white"/>
<path d="M115.537 0.619995H117.577L123.657 16.16H121.577L119.357 10.48L113.057 12.24L111.537 16.16H109.457L115.537 0.619995ZM113.737 10.48L118.817 9.06L116.557 3.22L113.737 10.48Z" fill="white"/>
<path d="M92.8637 0.619995L99.0837 13.82L105.324 0.619995H107.324V16.16H105.324V4.62L99.9037 16.16H98.2837L92.8637 4.62V16.16H90.8637V0.619995H92.8637Z" fill="white"/>
<path d="M78.6871 16.36L73.8471 9.59998V16.36H69.6871V0.419983H73.8471V6.41998L78.6871 0.419983H83.2671L77.1071 8.05998L83.2671 16.36H78.6871Z" fill="white"/>
<path d="M51.5723 8.38C51.5723 7.15333 51.7923 6.02667 52.2323 5C52.6856 3.97333 53.2989 3.09333 54.0723 2.36C54.8589 1.61333 55.7856 1.03333 56.8523 0.619999C57.9189 0.206666 59.0656 0 60.2923 0C61.9456 0 63.3723 0.34 64.5723 1.02C65.7723 1.68667 66.8523 2.68 67.8123 4L65.0723 6.3C64.5789 5.42 63.9523 4.72 63.1923 4.2C62.4456 3.68 61.5123 3.42 60.3923 3.42C59.6989 3.42 59.0656 3.54667 58.4923 3.8C57.9189 4.05333 57.4256 4.40667 57.0123 4.86C56.6123 5.3 56.2989 5.82667 56.0723 6.44C55.8456 7.04 55.7323 7.68667 55.7323 8.38C55.7323 9.07333 55.8389 9.72 56.0523 10.32C56.2789 10.92 56.5989 11.4467 57.0123 11.9C57.4256 12.34 57.9189 12.6867 58.4923 12.94C59.0789 13.1933 59.7256 13.32 60.4323 13.32C61.0056 13.32 61.5189 13.2533 61.9723 13.12C62.4389 12.9867 62.8589 12.7933 63.2323 12.54C63.6189 12.2867 63.9656 11.98 64.2723 11.62C64.5923 11.26 64.8856 10.8533 65.1523 10.4L67.8323 12.78C66.9256 14.0467 65.8656 15.0267 64.6523 15.72C63.4523 16.4133 61.9989 16.76 60.2923 16.76C59.0656 16.76 57.9189 16.5533 56.8523 16.14C55.7856 15.7267 54.8589 15.1467 54.0723 14.4C53.2989 13.6667 52.6856 12.7867 52.2323 11.76C51.7923 10.7333 51.5723 9.60667 51.5723 8.38Z" fill="white"/>
<path d="M32.0801 8.36C32.0801 7.14667 32.3001 6.02667 32.7401 5C33.1934 3.97333 33.8067 3.09333 34.5801 2.36C35.3667 1.61333 36.2934 1.03333 37.3601 0.619999C38.4267 0.206666 39.5867 0 40.8401 0C42.1067 0 43.2734 0.206666 44.3401 0.619999C45.4067 1.03333 46.3267 1.61333 47.1001 2.36C47.8867 3.09333 48.4934 3.97333 48.9201 5C49.3601 6.02667 49.5801 7.14667 49.5801 8.36C49.5801 9.58667 49.3601 10.7133 48.9201 11.74C48.4934 12.7667 47.8867 13.6533 47.1001 14.4C46.3267 15.1467 45.4067 15.7267 44.3401 16.14C43.2734 16.5533 42.1067 16.76 40.8401 16.76C39.5867 16.76 38.4267 16.5533 37.3601 16.14C36.2934 15.7267 35.3667 15.1467 34.5801 14.4C33.8067 13.6533 33.1934 12.7667 32.7401 11.74C32.3001 10.7133 32.0801 9.58667 32.0801 8.36ZM36.2401 8.36C36.2401 9.09333 36.3467 9.76667 36.5601 10.38C36.7867 10.98 37.1001 11.5 37.5001 11.94C37.9001 12.38 38.3801 12.7267 38.9401 12.98C39.5134 13.22 40.1467 13.34 40.8401 13.34C41.5334 13.34 42.1601 13.22 42.7201 12.98C43.2934 12.7267 43.7801 12.38 44.1801 11.94C44.5801 11.5 44.8867 10.98 45.1001 10.38C45.3267 9.76667 45.4401 9.09333 45.4401 8.36C45.4401 7.65333 45.3267 7 45.1001 6.4C44.8867 5.8 44.5801 5.28 44.1801 4.84C43.7801 4.4 43.2934 4.06 42.7201 3.82C42.1601 3.56667 41.5334 3.44 40.8401 3.44C40.1467 3.44 39.5134 3.56667 38.9401 3.82C38.3801 4.06 37.9001 4.4 37.5001 4.84C37.1001 5.28 36.7867 5.8 36.5601 6.4C36.3467 7 36.2401 7.65333 36.2401 8.36Z" fill="white"/>
<path d="M15.9762 0.419983H20.1362L26.1162 10.08V0.419983H30.2762V16.36H26.1162L20.1362 6.51998V16.36H15.9762V0.419983Z" fill="white"/>
<path d="M9.60507 16.36L4.76507 9.59998V16.36H0.605072V0.419983H4.76507V6.41998L9.60507 0.419983H14.1851L8.02507 8.05998L14.1851 16.36H9.60507Z" fill="white"/>
</svg>
