<svg width="72" height="72" viewBox="0 0 72 72" fill="none" xmlns="http://www.w3.org/2000/svg">
<path d="M39.5999 29.87C38.4099 29.87 37.4399 30.83 37.4399 32.02C37.4399 33.21 38.4099 34.17 39.5999 34.17C40.7899 34.17 41.7499 33.21 41.7499 32.02C41.7499 30.83 40.7899 29.87 39.5999 29.87Z" fill="white"/>
<path d="M20.4 29.88C19.21 29.88 18.24 30.84 18.24 32.03C18.24 33.22 19.21 34.18 20.4 34.18C21.59 34.18 22.55 33.22 22.55 32.03C22.55 30.84 21.59 29.88 20.4 29.88Z" fill="white"/>
<path d="M52.5 29.87C51.31 29.87 50.35 30.83 50.35 32.02C50.35 33.21 51.31 34.17 52.5 34.17C53.69 34.17 54.65 33.21 54.65 32.02C54.65 30.83 53.69 29.87 52.5 29.87Z" fill="white"/>
<path d="M55.08 11H17.64C12.87 11 9 14.88 9 19.67V40.24C9 45.03 12.87 48.91 17.64 48.91H29.75L34.94 57.35C34.94 57.35 34.99 57.44 35.08 57.55C35.34 57.99 35.81 58.29 36.36 58.29C36.91 58.29 37.37 57.99 37.63 57.56C37.74 57.43 37.78 57.35 37.78 57.35L42.97 48.91H55.08C59.85 48.91 63.72 45.03 63.72 40.24V19.67C63.72 14.88 59.85 11 55.08 11ZM21.14 37.12C19.13 37.12 18.33 35.68 18.33 35.68V36.77H14.95V22.81H18.3V28.12C19.66 26.8 21.15 26.8 21.15 26.8C25.7 26.81 25.87 31.91 25.87 31.91C25.87 36.95 21.15 37.12 21.15 37.12H21.14ZM31.71 28.07V37.1H28.48V28.84C28.48 25.99 26.95 26.06 26.95 26.06V22.83C31.85 22.83 31.71 28.07 31.71 28.07ZM45.26 32.02C45.26 37.12 39.6 37.12 39.6 37.12C33.89 37.12 34.07 32.02 34.07 32.02C34.07 26.85 39.6 26.85 39.6 26.85C45.44 26.85 45.26 32.02 45.26 32.02ZM57.76 36.64C57.76 41.92 52.86 41.87 52.86 41.87H51.56V38.9H52.37C54.73 38.9 54.5 36.45 54.5 36.45V35.67C53.46 37.03 51.56 36.95 51.56 36.95C46.9 36.95 46.95 31.98 46.95 31.98C46.95 26.65 51.69 26.85 51.69 26.85C53.54 26.85 54.5 28.13 54.5 28.13V27.19H57.76V36.64Z" fill="white"/>
</svg>
