<svg width="33" height="32" viewBox="0 0 33 32" fill="none" xmlns="http://www.w3.org/2000/svg">
<path d="M16.62 21.7143C19.776 21.7143 22.3343 19.1559 22.3343 16C22.3343 12.8441 19.776 10.2857 16.62 10.2857C13.4641 10.2857 10.9058 12.8441 10.9058 16C10.9058 19.1559 13.4641 21.7143 16.62 21.7143Z" fill="#333333"/>
<path d="M16.62 3.42857C23.5515 3.42857 29.1915 9.06857 29.1915 16C29.1915 22.9314 23.5515 28.5714 16.62 28.5714C9.68862 28.5714 4.04862 22.9314 4.04862 16C4.04862 9.06857 9.68862 3.42857 16.62 3.42857ZM16.62 2.28571C9.04862 2.28571 2.90576 8.42857 2.90576 16C2.90576 23.5714 9.04862 29.7143 16.62 29.7143C24.1915 29.7143 30.3343 23.5714 30.3343 16C30.3343 8.42857 24.1972 2.28571 16.62 2.28571Z" fill="#DBDBDB"/>
</svg>
