<svg width="33" height="32" viewBox="0 0 33 32" fill="none" xmlns="http://www.w3.org/2000/svg">
<path d="M16.3 29.4286C23.7164 29.4286 29.7286 23.4164 29.7286 16C29.7286 8.5836 23.7164 2.57142 16.3 2.57142C8.88364 2.57142 2.87146 8.5836 2.87146 16C2.87146 23.4164 8.88364 29.4286 16.3 29.4286Z" fill="#F2F2F2"/>
<path d="M16.3001 2.85714C23.5458 2.85714 29.443 8.75428 29.443 16C29.443 23.2457 23.5458 29.1429 16.3001 29.1429C9.05439 29.1429 3.15724 23.2457 3.15724 16C3.15724 8.75428 9.05439 2.85714 16.3001 2.85714ZM16.3001 2.28571C8.72867 2.28571 2.58582 8.42857 2.58582 16C2.58582 23.5714 8.72867 29.7143 16.3001 29.7143C23.8715 29.7143 30.0144 23.5714 30.0144 16C30.0144 8.42857 23.8715 2.28571 16.3001 2.28571Z" fill="#DBDBDB"/>
<path d="M16.3001 21.7143C19.456 21.7143 22.0144 19.1559 22.0144 16C22.0144 12.8441 19.456 10.2857 16.3001 10.2857C13.1442 10.2857 10.5858 12.8441 10.5858 16C10.5858 19.1559 13.1442 21.7143 16.3001 21.7143Z" fill="#DBDBDB"/>
</svg>
