<svg width="73" height="72" viewBox="0 0 73 72" fill="none" xmlns="http://www.w3.org/2000/svg">
<path d="M55.3401 12.34H17.9102C13.1402 12.34 9.27002 16.22 9.27002 21.01V41.58C9.27002 46.37 13.1402 50.25 17.9102 50.25H30.02L35.21 58.69C35.21 58.69 35.2601 58.78 35.3501 58.89C35.6101 59.33 36.0801 59.63 36.6301 59.63C37.1801 59.63 37.6401 59.33 37.9001 58.9C38.0101 58.77 38.05 58.69 38.05 58.69L43.24 50.25H55.3501C60.1201 50.25 63.99 46.37 63.99 41.58V21.01C63.99 16.22 60.1201 12.34 55.3501 12.34H55.3401Z" fill="#00C402"/>
<path d="M21.4199 28.14C21.4199 28.14 19.9301 28.14 18.5701 29.46V24.15H15.22V38.11H18.6001V37.02C18.6001 37.02 19.4002 38.46 21.4102 38.46C21.4102 38.46 26.1301 38.29 26.1301 33.25C26.1301 33.25 25.9602 28.15 21.4102 28.15M20.6699 35.52C19.4799 35.52 18.51 34.56 18.51 33.37C18.51 32.18 19.4799 31.22 20.6699 31.22C21.8599 31.22 22.8201 32.18 22.8201 33.37C22.8201 34.56 21.8599 35.52 20.6699 35.52Z" fill="white"/>
<path d="M27.22 24.17V27.4C27.22 27.4 28.75 27.33 28.75 30.18V38.44H31.98V29.41C31.98 29.41 32.12 24.17 27.22 24.17Z" fill="white"/>
<path d="M39.87 28.19C39.87 28.19 34.34 28.19 34.34 33.36C34.34 33.36 34.16 38.46 39.87 38.46C39.87 38.46 45.5299 38.46 45.5299 33.36C45.5299 33.36 45.71 28.19 39.87 28.19ZM39.87 35.51C38.68 35.51 37.7099 34.55 37.7099 33.36C37.7099 32.17 38.68 31.21 39.87 31.21C41.06 31.21 42.0199 32.17 42.0199 33.36C42.0199 34.55 41.06 35.51 39.87 35.51Z" fill="white"/>
<path d="M54.77 28.53V29.47C54.77 29.47 53.81 28.19 51.96 28.19C51.96 28.19 47.22 27.99 47.22 33.32C47.22 33.32 47.1701 38.29 51.8301 38.29C51.8301 38.29 53.73 38.37 54.77 37.01V37.79C54.77 37.79 55.0002 40.24 52.6402 40.24H51.8301V43.21H53.1301C53.1301 43.21 58.0301 43.26 58.0301 37.98V28.53H54.77ZM52.77 35.51C51.58 35.51 50.6201 34.55 50.6201 33.36C50.6201 32.17 51.58 31.21 52.77 31.21C53.96 31.21 54.9199 32.17 54.9199 33.36C54.9199 34.55 53.96 35.51 52.77 35.51Z" fill="white"/>
</svg>
