<svg width="71" height="18" viewBox="0 0 71 18" fill="none" xmlns="http://www.w3.org/2000/svg">
<path d="M60.3107 4.06403H63.1587V5.02403C63.7453 4.23469 64.6413 3.84003 65.8467 3.84003C66.732 3.84003 67.5213 4.05336 68.2147 4.48003C68.908 4.89603 69.4467 5.47736 69.8307 6.22403C70.2147 6.97069 70.4067 7.81336 70.4067 8.75203C70.4067 9.69069 70.2147 10.5334 69.8307 11.28C69.4467 12.0267 68.908 12.608 68.2147 13.024C67.5213 13.4507 66.732 13.664 65.8467 13.664C64.6413 13.664 63.7453 13.2694 63.1587 12.48V17.344H60.3107V4.06403ZM65.3987 11.232C66.0707 11.232 66.6093 11.0027 67.0147 10.544C67.42 10.0747 67.6227 9.47736 67.6227 8.75203C67.6227 8.02669 67.42 7.43469 67.0147 6.97603C66.6093 6.50669 66.0707 6.27203 65.3987 6.27203C64.7053 6.27203 64.1507 6.50669 63.7347 6.97603C63.3187 7.43469 63.1107 8.02669 63.1107 8.75203C63.1107 9.47736 63.3187 10.0747 63.7347 10.544C64.1507 11.0027 64.7053 11.232 65.3987 11.232Z" fill="#181818"/>
<path d="M46.3088 0.400024H49.2208V7.66402C49.2208 8.70936 49.4928 9.55202 50.0368 10.192C50.5914 10.8214 51.3381 11.136 52.2768 11.136C53.2154 11.136 53.9568 10.8214 54.5008 10.192C55.0554 9.55202 55.3328 8.70936 55.3328 7.66402V0.400024H58.2448V7.66402C58.2448 8.88002 57.9941 9.95202 57.4928 10.88C57.0021 11.7974 56.3034 12.5067 55.3968 13.008C54.5008 13.5094 53.4608 13.76 52.2768 13.76C51.0928 13.76 50.0474 13.5094 49.1408 13.008C48.2448 12.5067 47.5461 11.7974 47.0448 10.88C46.5541 9.95202 46.3088 8.88002 46.3088 7.66402V0.400024Z" fill="#3559E0"/>
<path d="M39.7009 10L38.5649 11.28V13.44H35.7169V0H38.5649V7.888L41.8769 4.064H45.0449L41.4449 8.064L45.2369 13.44H41.9889L39.7009 10Z" fill="#181818"/>
<path d="M27.6232 4.06403H30.4712V5.02403C31.0578 4.23469 31.9325 3.84003 33.0952 3.84003C33.6072 3.84003 34.0178 3.89336 34.3272 4.00003L34.3592 6.67203C33.9538 6.45869 33.4685 6.35203 32.9032 6.35203C32.1458 6.35203 31.5485 6.55469 31.1112 6.96003C30.6845 7.36536 30.4712 7.92536 30.4712 8.64003V13.44H27.6232V4.06403Z" fill="#181818"/>
<path d="M19.9375 13.664C19.0522 13.664 18.2628 13.4507 17.5695 13.024C16.8762 12.608 16.3375 12.0267 15.9535 11.28C15.5695 10.5334 15.3775 9.69069 15.3775 8.75203C15.3775 7.81336 15.5695 6.97069 15.9535 6.22403C16.3375 5.47736 16.8762 4.89603 17.5695 4.48003C18.2628 4.05336 19.0522 3.84003 19.9375 3.84003C21.1428 3.84003 22.0388 4.23469 22.6255 5.02403V4.06403H25.4735V13.44H22.6255V12.48C22.0388 13.2694 21.1428 13.664 19.9375 13.664ZM20.3855 11.232C21.0788 11.232 21.6335 11.0027 22.0495 10.544C22.4655 10.0747 22.6735 9.47736 22.6735 8.75203C22.6735 8.02669 22.4655 7.43469 22.0495 6.97603C21.6335 6.50669 21.0788 6.27203 20.3855 6.27203C19.7135 6.27203 19.1748 6.50669 18.7695 6.97603C18.3642 7.43469 18.1615 8.02669 18.1615 8.75203C18.1615 9.47736 18.3642 10.0747 18.7695 10.544C19.1748 11.0027 19.7135 11.232 20.3855 11.232Z" fill="#181818"/>
<path d="M0 0.400024H2.32L6.816 7.69602L11.312 0.400024H13.632V13.44H10.72V6.28802L7.696 11.296H5.936L2.912 6.28802V13.44H0V0.400024Z" fill="#181818"/>
</svg>
