<svg width="183" height="18" viewBox="0 0 183 18" fill="none" xmlns="http://www.w3.org/2000/svg">
<path d="M170.278 1.56H178.038C178.651 1.56 179.244 1.64666 179.818 1.82C180.391 1.99333 180.898 2.25333 181.338 2.6C181.778 2.94666 182.131 3.38666 182.398 3.92C182.664 4.44 182.798 5.06 182.798 5.78C182.798 6.48667 182.678 7.08 182.438 7.56C182.211 8.04 181.891 8.44 181.478 8.76C181.078 9.08 180.591 9.34 180.018 9.54C179.458 9.72667 178.851 9.89333 178.198 10.04L172.278 11.46V17.1H170.278V1.56ZM180.818 5.78C180.818 5.36667 180.738 5 180.578 4.68C180.418 4.36 180.198 4.09333 179.918 3.88C179.638 3.65333 179.304 3.48666 178.918 3.38C178.544 3.26 178.131 3.2 177.678 3.2H172.278V9.64L177.418 8.56C178.578 8.30666 179.431 7.97333 179.978 7.56C180.538 7.13333 180.818 6.54 180.818 5.78Z" fill="#242424"/>
<path d="M160.82 17.5C159.874 17.5 159 17.34 158.2 17.02C157.414 16.7133 156.734 16.28 156.16 15.72C155.587 15.1733 155.14 14.5267 154.82 13.78C154.5 13.02 154.34 12.2067 154.34 11.34V1.56H156.34V11.14C156.34 11.74 156.434 12.32 156.62 12.88C156.82 13.4267 157.107 13.9133 157.48 14.34C157.867 14.7667 158.334 15.1067 158.88 15.36C159.44 15.6133 160.087 15.74 160.82 15.74C161.554 15.74 162.194 15.6133 162.74 15.36C163.3 15.1067 163.767 14.7667 164.14 14.34C164.514 13.9133 164.794 13.4267 164.98 12.88C165.18 12.32 165.28 11.74 165.28 11.14V1.56H167.28V11.34C167.28 12.2067 167.12 13.02 166.8 13.78C166.48 14.5267 166.034 15.1733 165.46 15.72C164.9 16.28 164.22 16.7133 163.42 17.02C162.634 17.34 161.767 17.5 160.82 17.5Z" fill="#3559E0"/>
<path d="M149.725 17.1L142.825 9.9V17.1H140.825V1.56H142.825V7.98L149.625 1.56H152.225L144.485 8.88L152.345 17.1H149.725Z" fill="#242424"/>
<path d="M125.629 1.56H133.389C134.003 1.56 134.596 1.64666 135.169 1.82C135.743 1.99333 136.249 2.25333 136.689 2.6C137.129 2.94666 137.483 3.38666 137.749 3.92C138.016 4.44 138.149 5.06 138.149 5.78C138.149 6.36666 138.069 6.87333 137.909 7.3C137.749 7.72666 137.523 8.09333 137.229 8.4C136.949 8.70666 136.603 8.96667 136.189 9.18C135.789 9.38 135.349 9.55333 134.869 9.7L138.829 17.1H136.729L132.969 10.18L127.629 11.46V17.1H125.629V1.56ZM136.169 5.78C136.169 5.36667 136.089 5 135.929 4.68C135.769 4.36 135.549 4.09333 135.269 3.88C134.989 3.65333 134.656 3.48666 134.269 3.38C133.896 3.26 133.483 3.2 133.029 3.2H127.629V9.64L132.769 8.56C133.929 8.30666 134.783 7.97333 135.329 7.56C135.889 7.13333 136.169 6.54 136.169 5.78Z" fill="#242424"/>
<path d="M115.537 1.56H117.577L123.657 17.1H121.577L119.357 11.42L113.057 13.18L111.537 17.1H109.457L115.537 1.56ZM113.737 11.42L118.817 10L116.557 4.16L113.737 11.42Z" fill="#242424"/>
<path d="M92.8637 1.56L99.0837 14.76L105.324 1.56H107.324V17.1H105.324V5.56L99.9037 17.1H98.2837L92.8637 5.56V17.1H90.8637V1.56H92.8637Z" fill="#242424"/>
<path d="M78.6871 17.3L73.8471 10.54V17.3H69.6871V1.35999H73.8471V7.35999L78.6871 1.35999H83.2671L77.1071 8.99999L83.2671 17.3H78.6871Z" fill="#242424"/>
<path d="M51.5723 9.32C51.5723 8.09334 51.7923 6.96667 52.2323 5.94C52.6856 4.91334 53.2989 4.03334 54.0723 3.3C54.8589 2.55334 55.7856 1.97334 56.8523 1.56C57.9189 1.14667 59.0656 0.940002 60.2923 0.940002C61.9456 0.940002 63.3723 1.28 64.5723 1.96C65.7723 2.62667 66.8523 3.62 67.8123 4.94L65.0723 7.24C64.5789 6.36 63.9523 5.66 63.1923 5.14C62.4456 4.62 61.5123 4.36 60.3923 4.36C59.6989 4.36 59.0656 4.48667 58.4923 4.74C57.9189 4.99334 57.4256 5.34667 57.0123 5.8C56.6123 6.24 56.2989 6.76667 56.0723 7.38C55.8456 7.98 55.7323 8.62667 55.7323 9.32C55.7323 10.0133 55.8389 10.66 56.0523 11.26C56.2789 11.86 56.5989 12.3867 57.0123 12.84C57.4256 13.28 57.9189 13.6267 58.4923 13.88C59.0789 14.1333 59.7256 14.26 60.4323 14.26C61.0056 14.26 61.5189 14.1933 61.9723 14.06C62.4389 13.9267 62.8589 13.7333 63.2323 13.48C63.6189 13.2267 63.9656 12.92 64.2723 12.56C64.5923 12.2 64.8856 11.7933 65.1523 11.34L67.8323 13.72C66.9256 14.9867 65.8656 15.9667 64.6523 16.66C63.4523 17.3533 61.9989 17.7 60.2923 17.7C59.0656 17.7 57.9189 17.4933 56.8523 17.08C55.7856 16.6667 54.8589 16.0867 54.0723 15.34C53.2989 14.6067 52.6856 13.7267 52.2323 12.7C51.7923 11.6733 51.5723 10.5467 51.5723 9.32Z" fill="#242424"/>
<path d="M32.0801 9.3C32.0801 8.08667 32.3001 6.96667 32.7401 5.94C33.1934 4.91334 33.8067 4.03334 34.5801 3.3C35.3667 2.55334 36.2934 1.97334 37.3601 1.56C38.4267 1.14667 39.5867 0.940002 40.8401 0.940002C42.1067 0.940002 43.2734 1.14667 44.3401 1.56C45.4067 1.97334 46.3267 2.55334 47.1001 3.3C47.8867 4.03334 48.4934 4.91334 48.9201 5.94C49.3601 6.96667 49.5801 8.08667 49.5801 9.3C49.5801 10.5267 49.3601 11.6533 48.9201 12.68C48.4934 13.7067 47.8867 14.5933 47.1001 15.34C46.3267 16.0867 45.4067 16.6667 44.3401 17.08C43.2734 17.4933 42.1067 17.7 40.8401 17.7C39.5867 17.7 38.4267 17.4933 37.3601 17.08C36.2934 16.6667 35.3667 16.0867 34.5801 15.34C33.8067 14.5933 33.1934 13.7067 32.7401 12.68C32.3001 11.6533 32.0801 10.5267 32.0801 9.3ZM36.2401 9.3C36.2401 10.0333 36.3467 10.7067 36.5601 11.32C36.7867 11.92 37.1001 12.44 37.5001 12.88C37.9001 13.32 38.3801 13.6667 38.9401 13.92C39.5134 14.16 40.1467 14.28 40.8401 14.28C41.5334 14.28 42.1601 14.16 42.7201 13.92C43.2934 13.6667 43.7801 13.32 44.1801 12.88C44.5801 12.44 44.8867 11.92 45.1001 11.32C45.3267 10.7067 45.4401 10.0333 45.4401 9.3C45.4401 8.59334 45.3267 7.94 45.1001 7.34C44.8867 6.74 44.5801 6.22 44.1801 5.78C43.7801 5.34 43.2934 5 42.7201 4.76C42.1601 4.50667 41.5334 4.38 40.8401 4.38C40.1467 4.38 39.5134 4.50667 38.9401 4.76C38.3801 5 37.9001 5.34 37.5001 5.78C37.1001 6.22 36.7867 6.74 36.5601 7.34C36.3467 7.94 36.2401 8.59334 36.2401 9.3Z" fill="#242424"/>
<path d="M15.9762 1.35999H20.1362L26.1162 11.02V1.35999H30.2762V17.3H26.1162L20.1362 7.45999V17.3H15.9762V1.35999Z" fill="#242424"/>
<path d="M9.60507 17.3L4.76507 10.54V17.3H0.605072V1.35999H4.76507V7.35999L9.60507 1.35999H14.1851L8.02507 8.99999L14.1851 17.3H9.60507Z" fill="#242424"/>
</svg>
