<svg width="32" height="32" viewBox="0 0 32 32" fill="none" xmlns="http://www.w3.org/2000/svg">
<path d="M23.4286 12C25.3221 12 26.8571 10.465 26.8571 8.57142C26.8571 6.67788 25.3221 5.14285 23.4286 5.14285C21.535 5.14285 20 6.67788 20 8.57142C20 10.465 21.535 12 23.4286 12Z" stroke="#333333" stroke-miterlimit="10"/>
<path d="M23.4286 26.8571C25.3221 26.8571 26.8571 25.3221 26.8571 23.4286C26.8571 21.535 25.3221 20 23.4286 20C21.535 20 20 21.535 20 23.4286C20 25.3221 21.535 26.8571 23.4286 26.8571Z" stroke="#333333" stroke-miterlimit="10"/>
<path d="M11.6057 14.48L20.36 10.1029" stroke="#333333" stroke-miterlimit="10"/>
<path d="M20.36 21.8971L11.6343 17.5314" stroke="#333333" stroke-miterlimit="10"/>
<path d="M8.57139 19.4286C10.4649 19.4286 12 17.8935 12 16C12 14.1065 10.4649 12.5714 8.57139 12.5714C6.67785 12.5714 5.14282 14.1065 5.14282 16C5.14282 17.8935 6.67785 19.4286 8.57139 19.4286Z" stroke="#333333" stroke-miterlimit="10"/>
</svg>
