<svg width="120" height="120" viewBox="0 0 120 120" fill="none" xmlns="http://www.w3.org/2000/svg">
<mask id="mask0_108_93" style="mask-type:alpha" maskUnits="userSpaceOnUse" x="0" y="0" width="120" height="120">
<circle cx="60" cy="60" r="60" fill="#E6E8EC"/>
</mask>
<g mask="url(#mask0_108_93)">
<circle cx="60" cy="60" r="60" fill="#E8E8E8"/>
<path d="M21.1867 96.7999C21.4684 96.8738 21.7677 96.8329 22.0196 96.6862C22.2716 96.5395 22.456 96.2988 22.5328 96.0162C24.7982 87.5082 34.0049 85.3032 39.5078 83.9838C40.8869 83.6539 41.9756 83.3926 42.6838 83.0849C48.9521 80.3463 50.9954 75.9407 51.6068 72.7262C51.6431 72.5349 51.6287 72.3374 51.565 72.1535C51.5013 71.9697 51.3905 71.806 51.2439 71.679C47.98 68.843 45.2263 64.5857 43.4888 59.6886C43.4397 59.5482 43.3626 59.4193 43.2622 59.31C40.9638 56.7951 39.6442 54.1362 39.6442 52.0175C39.6442 50.78 40.1083 49.9498 41.153 49.3232C41.3095 49.2291 41.4403 49.0972 41.5335 48.9395C41.6268 48.7819 41.6797 48.6033 41.6874 48.42C42.1735 37.1425 50.153 28.2648 59.9404 28.2072L60.1757 28.2227C70.0115 28.36 77.9403 37.4281 78.2241 48.865C78.228 49.0213 78.265 49.175 78.3325 49.3158C78.4 49.4567 78.4965 49.5814 78.6156 49.6819C79.304 50.2686 79.6251 51.0124 79.6251 52.022C79.6251 53.7953 78.6859 55.9759 76.9836 58.1588C76.9025 58.2639 76.84 58.3822 76.7988 58.5086C75.0393 64.123 71.881 69.0799 68.1376 72.1129C67.9825 72.239 67.8642 72.405 67.7953 72.5932C67.7264 72.7815 67.7094 72.985 67.7461 73.1822C68.3575 76.3946 70.4008 80.798 76.6691 83.541C77.4103 83.8642 78.5606 84.1166 80.0188 84.4332C85.4667 85.6198 94.5833 87.6101 96.8201 96.0162C96.8576 96.1566 96.9223 96.2882 97.0103 96.4035C97.0984 96.5188 97.2082 96.6154 97.3334 96.688C97.4586 96.7606 97.5968 96.8076 97.74 96.8264C97.8833 96.8453 98.0288 96.8355 98.1683 96.7977C98.3078 96.7599 98.4386 96.6948 98.5531 96.6062C98.6676 96.5175 98.7636 96.407 98.8357 96.281C98.9078 96.155 98.9546 96.0159 98.9733 95.8717C98.9919 95.7275 98.9822 95.581 98.9447 95.4406C96.3604 85.7283 86.032 83.4768 80.4851 82.268C79.1984 81.9868 78.0877 81.7455 77.5466 81.5064C73.4557 79.7176 70.9352 76.9923 70.0444 73.3925C73.8428 70.1094 77.021 65.044 78.8377 59.3632C80.7666 56.8394 81.8267 54.2403 81.8267 52.0197C81.8267 50.5387 81.3516 49.3033 80.4103 48.3381C79.8868 35.9315 71.0914 26.1616 60.1757 26.0044L59.848 26C49.1302 26.0576 40.2974 35.5706 39.5254 47.7624C38.1486 48.7808 37.4492 50.2088 37.4492 52.022C37.4492 54.641 38.9206 57.7736 41.4961 60.6472C43.2754 65.5687 46.0335 69.8924 49.3172 72.9188C48.4308 76.5318 45.9081 79.266 41.8084 81.057C41.2784 81.2895 40.2226 81.5441 38.9998 81.8363C33.4111 83.1735 23.0122 85.6641 20.4081 95.445C20.3329 95.7286 20.3727 96.0307 20.5187 96.2847C20.6647 96.5388 20.905 96.7241 21.1867 96.7999Z" fill="white"/>
<path d="M47.9793 32.251L55.2721 28.0837L61.523 27.5627L67.774 29.6464L72.9831 33.2928L77.6713 39.0228L79.755 48.9202L80.2759 53.6084L77.6713 58.2966L75.5877 65.0685L69.3367 72.8822L69.8576 77.0495L77.6713 82.7795L89.74 85.9012L98.22 93.3213L112 120.881C81.6891 120.881 6 123.001 6 123.001L20.31 95.4413L29.7473 85.3841L38.0819 84.3423L47.9793 78.6122L50.5839 72.8822L49.0211 70.2776L44.3329 64.0267L41.7283 60.9012L40.1656 55.6921L39.1238 50.4829L40.1656 48.3993L42.7702 39.5437L47.9793 32.251Z" fill="white"/>
</g>
</svg>
