<svg width="60" height="60" viewBox="0 0 60 60" fill="none" xmlns="http://www.w3.org/2000/svg">
<rect width="60" height="60" fill="white"/>
<path d="M24.375 41.875C24.375 40.2505 25.0203 38.6926 26.169 37.544C27.3176 36.3953 28.8755 35.75 30.5 35.75C32.1245 35.75 33.6824 36.3953 34.831 37.544C35.9797 38.6926 36.625 40.2505 36.625 41.875V47.125C36.625 47.9293 36.4666 48.7258 36.1588 49.4689C35.851 50.2121 35.3998 50.8873 34.831 51.456C34.2623 52.0248 33.5871 52.476 32.8439 52.7838C32.1008 53.0916 31.3043 53.25 30.5 53.25C29.6957 53.25 28.8992 53.0916 28.1561 52.7838C27.4129 52.476 26.7377 52.0248 26.169 51.456C25.6002 50.8873 25.149 50.2121 24.8412 49.4689C24.5334 48.7258 24.375 47.9293 24.375 47.125V41.875Z" stroke="black"/>
<path d="M29.1875 41.4375C29.1875 41.0894 29.3258 40.7556 29.5719 40.5094C29.8181 40.2633 30.1519 40.125 30.5 40.125C30.8481 40.125 31.1819 40.2633 31.4281 40.5094C31.6742 40.7556 31.8125 41.0894 31.8125 41.4375V43.1875C31.8125 43.5356 31.6742 43.8694 31.4281 44.1156C31.1819 44.3617 30.8481 44.5 30.5 44.5C30.1519 44.5 29.8181 44.3617 29.5719 44.1156C29.3258 43.8694 29.1875 43.5356 29.1875 43.1875V41.4375Z" stroke="black"/>
<path d="M30.5 35.75V40.125" stroke="black" stroke-linecap="round"/>
<rect x="7.5" y="8.5" width="12" height="5" rx="2.5" fill="white" stroke="#181818"/>
<rect x="7" y="16" width="21" height="6" rx="3" fill="#181818"/>
<rect x="30" y="16" width="24" height="6" rx="3" fill="#181818"/>
<rect x="7" y="24" width="30" height="6" rx="3" fill="#181818"/>
</svg>
