<svg width="60" height="60" viewBox="0 0 60 60" fill="none" xmlns="http://www.w3.org/2000/svg">
<rect width="60" height="60" fill="white"/>
<path d="M22.0417 25.875C22.0417 23.6317 22.9329 21.4803 24.5191 19.894C26.1054 18.3078 28.2568 17.4166 30.5001 17.4166C32.7434 17.4166 34.8948 18.3078 36.481 19.894C38.0673 21.4803 38.9584 23.6317 38.9584 25.875V33.125C38.9584 34.2357 38.7396 35.3356 38.3146 36.3618C37.8895 37.388 37.2665 38.3205 36.481 39.1059C35.6956 39.8913 34.7632 40.5144 33.7369 40.9394C32.7107 41.3645 31.6108 41.5833 30.5001 41.5833C29.3893 41.5833 28.2894 41.3645 27.2632 40.9394C26.237 40.5144 25.3046 39.8913 24.5191 39.1059C23.7337 38.3205 23.1107 37.388 22.6856 36.3618C22.2605 35.3356 22.0417 34.2357 22.0417 33.125V25.875Z" stroke="black" stroke-width="1.18"/>
<path d="M28.6875 25.2708C28.6875 24.79 28.8785 24.329 29.2184 23.9891C29.5583 23.6492 30.0193 23.4583 30.5 23.4583C30.9807 23.4583 31.4417 23.6492 31.7816 23.9891C32.1215 24.329 32.3125 24.79 32.3125 25.2708V27.6874C32.3125 28.1681 32.1215 28.6291 31.7816 28.969C31.4417 29.309 30.9807 29.4999 30.5 29.4999C30.0193 29.4999 29.5583 29.309 29.2184 28.969C28.8785 28.6291 28.6875 28.1681 28.6875 27.6874V25.2708Z" stroke="black" stroke-width="1.18"/>
<path d="M30.5 17.4166V23.4583" stroke="black" stroke-width="1.18" stroke-linecap="round"/>
</svg>
