<svg width="60" height="60" viewBox="0 0 60 60" fill="none" xmlns="http://www.w3.org/2000/svg">
<rect width="60" height="60" fill="white"/>
<path d="M14.8765 12.025H18.3525C19.3278 12.025 20.1785 12.2157 20.9045 12.597C21.6305 12.971 22.1878 13.499 22.5765 14.181C22.9651 14.8557 23.1595 15.633 23.1595 16.513C23.1595 17.393 22.9651 18.174 22.5765 18.856C22.1878 19.5307 21.6305 20.055 20.9045 20.429C20.1785 20.803 19.3278 20.99 18.3525 20.99H14.8765V12.025ZM18.3855 19.219C19.2508 19.219 19.9291 18.9843 20.4205 18.515C20.9118 18.0383 21.1575 17.371 21.1575 16.513C21.1575 15.655 20.9118 14.9877 20.4205 14.511C19.9291 14.0343 19.2508 13.796 18.3855 13.796H16.8785V19.219H18.3855ZM27.1118 21.144C26.5032 21.144 25.9605 20.9973 25.4838 20.704C25.0072 20.418 24.6368 20.0183 24.3728 19.505C24.1088 18.9917 23.9768 18.4123 23.9768 17.767C23.9768 17.1217 24.1088 16.5423 24.3728 16.029C24.6368 15.5157 25.0072 15.116 25.4838 14.83C25.9605 14.5367 26.5032 14.39 27.1118 14.39C27.9405 14.39 28.5565 14.6613 28.9598 15.204V14.544H30.9178V20.99H28.9598V20.33C28.5565 20.8727 27.9405 21.144 27.1118 21.144ZM27.4198 19.472C27.8965 19.472 28.2778 19.3143 28.5638 18.999C28.8498 18.6763 28.9928 18.2657 28.9928 17.767C28.9928 17.2683 28.8498 16.8613 28.5638 16.546C28.2778 16.2233 27.8965 16.062 27.4198 16.062C26.9578 16.062 26.5875 16.2233 26.3088 16.546C26.0302 16.8613 25.8908 17.2683 25.8908 17.767C25.8908 18.2657 26.0302 18.6763 26.3088 18.999C26.5875 19.3143 26.9578 19.472 27.4198 19.472ZM36.3447 16.227H35.0687V20.99H33.1107V16.227H31.8347V14.544H33.1107V12.63H35.0687V14.544H36.3447V16.227ZM40.1473 21.144C39.5019 21.144 38.9226 20.9973 38.4093 20.704C37.9033 20.418 37.5073 20.0183 37.2213 19.505C36.9353 18.9917 36.7923 18.4123 36.7923 17.767C36.7923 17.1217 36.9353 16.5423 37.2213 16.029C37.5073 15.5157 37.9033 15.116 38.4093 14.83C38.9226 14.5367 39.5019 14.39 40.1473 14.39C40.7926 14.39 41.3683 14.5367 41.8743 14.83C42.3876 15.116 42.7873 15.5157 43.0733 16.029C43.3593 16.5423 43.5023 17.1217 43.5023 17.767C43.5023 17.9797 43.4876 18.1887 43.4583 18.394H38.7393C38.8126 18.768 38.9739 19.0577 39.2233 19.263C39.4726 19.4683 39.7806 19.571 40.1473 19.571C40.4259 19.571 40.6716 19.527 40.8843 19.439C41.1043 19.3437 41.2546 19.219 41.3353 19.065H43.3043C43.1943 19.4757 42.9889 19.835 42.6883 20.143C42.3876 20.4583 42.0173 20.704 41.5773 20.88C41.1373 21.056 40.6606 21.144 40.1473 21.144ZM41.5883 17.129C41.5076 16.7403 41.3426 16.447 41.0933 16.249C40.8439 16.0437 40.5286 15.941 40.1473 15.941C39.7659 15.941 39.4543 16.0437 39.2123 16.249C38.9703 16.447 38.8089 16.7403 38.7283 17.129H41.5883ZM15.2647 33.99L13.5267 31.163H11.9317V33.99H9.9297V25.025H13.5377C14.2857 25.025 14.931 25.1533 15.4737 25.41C16.0164 25.6593 16.4307 26.015 16.7167 26.477C17.0027 26.939 17.1457 27.478 17.1457 28.094C17.1457 28.71 17.0027 29.249 16.7167 29.711C16.438 30.1657 16.0347 30.5177 15.5067 30.767L17.5857 33.99H15.2647ZM11.9317 29.392H13.4497C13.985 29.392 14.3994 29.282 14.6927 29.062C14.9934 28.8347 15.1437 28.512 15.1437 28.094C15.1437 27.676 14.9934 27.357 14.6927 27.137C14.3994 26.9097 13.985 26.796 13.4497 26.796H11.9317V29.392ZM21.0908 34.144C20.4822 34.144 19.9395 33.9973 19.4628 33.704C18.9862 33.418 18.6158 33.0183 18.3518 32.505C18.0878 31.9917 17.9558 31.4123 17.9558 30.767C17.9558 30.1217 18.0878 29.5423 18.3518 29.029C18.6158 28.5157 18.9862 28.116 19.4628 27.83C19.9395 27.5367 20.4822 27.39 21.0908 27.39C21.9195 27.39 22.5355 27.6613 22.9388 28.204V27.544H24.8968V33.99H22.9388V33.33C22.5355 33.8727 21.9195 34.144 21.0908 34.144ZM21.3988 32.472C21.8755 32.472 22.2568 32.3143 22.5428 31.999C22.8288 31.6763 22.9718 31.2657 22.9718 30.767C22.9718 30.2683 22.8288 29.8613 22.5428 29.546C22.2568 29.2233 21.8755 29.062 21.3988 29.062C20.9368 29.062 20.5665 29.2233 20.2878 29.546C20.0092 29.8613 19.8698 30.2683 19.8698 30.767C19.8698 31.2657 20.0092 31.6763 20.2878 31.999C20.5665 32.3143 20.9368 32.472 21.3988 32.472ZM26.3747 27.544H28.3327V28.204C28.736 27.6613 29.3374 27.39 30.1367 27.39C30.6354 27.39 31.0754 27.5073 31.4567 27.742C31.838 27.9693 32.1314 28.2993 32.3367 28.732C32.5494 29.1647 32.6557 29.6743 32.6557 30.261V33.99H30.6977V30.591C30.6977 30.0997 30.5987 29.7257 30.4007 29.469C30.21 29.205 29.9314 29.073 29.5647 29.073C29.1834 29.073 28.8827 29.216 28.6627 29.502C28.4427 29.788 28.3327 30.1803 28.3327 30.679V33.99H26.3747V27.544ZM37.2692 36.828C36.6532 36.828 36.1178 36.7217 35.6632 36.509C35.2158 36.3037 34.8602 36.025 34.5962 35.673C34.3322 35.321 34.1635 34.9287 34.0902 34.496H36.0702C36.1802 34.9507 36.5798 35.178 37.2692 35.178C37.6798 35.178 38.0098 35.057 38.2592 34.815C38.5085 34.573 38.6332 34.2503 38.6332 33.847V33.165C38.2298 33.7077 37.6138 33.979 36.7852 33.979C36.1765 33.979 35.6338 33.8397 35.1572 33.561C34.6805 33.2823 34.3102 32.8937 34.0462 32.395C33.7822 31.8963 33.6502 31.3353 33.6502 30.712C33.6502 30.074 33.7822 29.5057 34.0462 29.007C34.3102 28.501 34.6805 28.105 35.1572 27.819C35.6338 27.533 36.1765 27.39 36.7852 27.39C37.6138 27.39 38.2298 27.6613 38.6332 28.204V27.544H40.5912V33.869C40.5912 34.441 40.4482 34.9507 40.1622 35.398C39.8762 35.8527 39.4802 36.2047 38.9742 36.454C38.4755 36.7033 37.9072 36.828 37.2692 36.828ZM37.0932 32.362C37.5698 32.362 37.9512 32.208 38.2372 31.9C38.5232 31.592 38.6662 31.196 38.6662 30.712C38.6662 30.228 38.5232 29.832 38.2372 29.524C37.9512 29.216 37.5698 29.062 37.0932 29.062C36.6312 29.062 36.2608 29.216 35.9822 29.524C35.7035 29.832 35.5642 30.228 35.5642 30.712C35.5642 31.196 35.7035 31.592 35.9822 31.9C36.2608 32.208 36.6312 32.362 37.0932 32.362ZM45.094 34.144C44.4487 34.144 43.8694 33.9973 43.356 33.704C42.85 33.418 42.454 33.0183 42.168 32.505C41.882 31.9917 41.739 31.4123 41.739 30.767C41.739 30.1217 41.882 29.5423 42.168 29.029C42.454 28.5157 42.85 28.116 43.356 27.83C43.8694 27.5367 44.4487 27.39 45.094 27.39C45.7394 27.39 46.315 27.5367 46.821 27.83C47.3344 28.116 47.734 28.5157 48.02 29.029C48.306 29.5423 48.449 30.1217 48.449 30.767C48.449 30.9797 48.4344 31.1887 48.405 31.394H43.686C43.7594 31.768 43.9207 32.0577 44.17 32.263C44.4194 32.4683 44.7274 32.571 45.094 32.571C45.3727 32.571 45.6184 32.527 45.831 32.439C46.051 32.3437 46.2014 32.219 46.282 32.065H48.251C48.141 32.4757 47.9357 32.835 47.635 33.143C47.3344 33.4583 46.964 33.704 46.524 33.88C46.084 34.056 45.6074 34.144 45.094 34.144ZM46.535 30.129C46.4544 29.7403 46.2894 29.447 46.04 29.249C45.7907 29.0437 45.4754 28.941 45.094 28.941C44.7127 28.941 44.401 29.0437 44.159 29.249C43.917 29.447 43.7557 29.7403 43.675 30.129H46.535ZM10.3057 38.025H13.7487C14.5187 38.025 15.1787 38.1607 15.7287 38.432C16.286 38.7033 16.7113 39.0847 17.0047 39.576C17.298 40.0673 17.4447 40.643 17.4447 41.303C17.4447 41.9703 17.298 42.5533 17.0047 43.052C16.7113 43.5433 16.286 43.9247 15.7287 44.196C15.1787 44.4673 14.5187 44.603 13.7487 44.603H12.3077V46.99H10.3057V38.025ZM13.6607 42.832C14.2253 42.832 14.6617 42.7 14.9697 42.436C15.285 42.172 15.4427 41.7943 15.4427 41.303C15.4427 40.8117 15.285 40.4377 14.9697 40.181C14.6617 39.9243 14.2253 39.796 13.6607 39.796H12.3077V42.832H13.6607ZM19.4474 37.431C19.7921 37.431 20.0781 37.5447 20.3054 37.772C20.5328 37.9993 20.6464 38.2853 20.6464 38.63C20.6464 38.9747 20.5328 39.2607 20.3054 39.488C20.0781 39.7153 19.7921 39.829 19.4474 39.829C19.1028 39.829 18.8168 39.7153 18.5894 39.488C18.3621 39.2607 18.2484 38.9747 18.2484 38.63C18.2484 38.2853 18.3621 37.9993 18.5894 37.772C18.8168 37.5447 19.1028 37.431 19.4474 37.431ZM20.4264 47.012H18.4684V40.544H20.4264V47.012ZM28.1982 44.669C28.0295 45.417 27.6555 46.0147 27.0762 46.462C26.4969 46.9167 25.8002 47.144 24.9862 47.144C24.3335 47.144 23.7469 46.9973 23.2262 46.704C22.7055 46.418 22.2985 46.0183 22.0052 45.505C21.7119 44.9917 21.5652 44.4123 21.5652 43.767C21.5652 43.1217 21.7119 42.5423 22.0052 42.029C22.2985 41.5157 22.7055 41.116 23.2262 40.83C23.7469 40.5367 24.3335 40.39 24.9862 40.39C25.5362 40.39 26.0385 40.5 26.4932 40.72C26.9479 40.9327 27.3219 41.226 27.6152 41.6C27.9085 41.974 28.0919 42.3883 28.1652 42.843H26.1852C26.1045 42.6157 25.9579 42.436 25.7452 42.304C25.5399 42.1647 25.2869 42.095 24.9862 42.095C24.5315 42.095 24.1649 42.2527 23.8862 42.568C23.6149 42.876 23.4792 43.2757 23.4792 43.767C23.4792 44.2583 23.6149 44.6617 23.8862 44.977C24.1649 45.285 24.5315 45.439 24.9862 45.439C25.2869 45.439 25.5435 45.3693 25.7562 45.23C25.9762 45.0907 26.1302 44.9037 26.2182 44.669H28.1982ZM31.9926 44.625L31.2116 45.505V46.99H29.2536V37.75H31.2116V43.173L33.4886 40.544H35.6666L33.1916 43.294L35.7986 46.99H33.5656L31.9926 44.625ZM39.1536 47.144C38.5083 47.144 37.9289 46.9973 37.4156 46.704C36.9096 46.418 36.5136 46.0183 36.2276 45.505C35.9416 44.9917 35.7986 44.4123 35.7986 43.767C35.7986 43.1217 35.9416 42.5423 36.2276 42.029C36.5136 41.5157 36.9096 41.116 37.4156 40.83C37.9289 40.5367 38.5083 40.39 39.1536 40.39C39.7989 40.39 40.3746 40.5367 40.8806 40.83C41.3939 41.116 41.7936 41.5157 42.0796 42.029C42.3656 42.5423 42.5086 43.1217 42.5086 43.767C42.5086 43.9797 42.4939 44.1887 42.4646 44.394H37.7456C37.8189 44.768 37.9803 45.0577 38.2296 45.263C38.4789 45.4683 38.7869 45.571 39.1536 45.571C39.4323 45.571 39.6779 45.527 39.8906 45.439C40.1106 45.3437 40.2609 45.219 40.3416 45.065H42.3106C42.2006 45.4757 41.9953 45.835 41.6946 46.143C41.3939 46.4583 41.0236 46.704 40.5836 46.88C40.1436 47.056 39.6669 47.144 39.1536 47.144ZM40.5946 43.129C40.5139 42.7403 40.3489 42.447 40.0996 42.249C39.8503 42.0437 39.5349 41.941 39.1536 41.941C38.7723 41.941 38.4606 42.0437 38.2186 42.249C37.9766 42.447 37.8153 42.7403 37.7346 43.129H40.5946ZM43.6589 40.544H45.6169V41.204C46.0202 40.6613 46.6215 40.39 47.4209 40.39C47.7729 40.39 48.0552 40.4267 48.2679 40.5L48.2899 42.337C48.0112 42.1903 47.6775 42.117 47.2889 42.117C46.7682 42.117 46.3575 42.2563 46.0569 42.535C45.7635 42.8137 45.6169 43.1987 45.6169 43.69V46.99H43.6589V40.544Z" fill="#181818"/>
</svg>
