<svg width="60" height="60" viewBox="0 0 60 60" fill="none" xmlns="http://www.w3.org/2000/svg">
<rect width="60" height="60" fill="white"/>
<path d="M16.3765 19.025H19.8525C20.8278 19.025 21.6785 19.2157 22.4045 19.597C23.1305 19.971 23.6878 20.499 24.0765 21.181C24.4651 21.8557 24.6595 22.633 24.6595 23.513C24.6595 24.393 24.4651 25.174 24.0765 25.856C23.6878 26.5307 23.1305 27.055 22.4045 27.429C21.6785 27.803 20.8278 27.99 19.8525 27.99H16.3765V19.025ZM19.8855 26.219C20.7508 26.219 21.4291 25.9843 21.9205 25.515C22.4118 25.0383 22.6575 24.371 22.6575 23.513C22.6575 22.655 22.4118 21.9877 21.9205 21.511C21.4291 21.0343 20.7508 20.796 19.8855 20.796H18.3785V26.219H19.8855ZM28.6118 28.144C28.0032 28.144 27.4605 27.9973 26.9838 27.704C26.5072 27.418 26.1368 27.0183 25.8728 26.505C25.6088 25.9917 25.4768 25.4123 25.4768 24.767C25.4768 24.1217 25.6088 23.5423 25.8728 23.029C26.1368 22.5157 26.5072 22.116 26.9838 21.83C27.4605 21.5367 28.0032 21.39 28.6118 21.39C29.4405 21.39 30.0565 21.6613 30.4598 22.204V21.544H32.4178V27.99H30.4598V27.33C30.0565 27.8727 29.4405 28.144 28.6118 28.144ZM28.9198 26.472C29.3965 26.472 29.7778 26.3143 30.0638 25.999C30.3498 25.6763 30.4928 25.2657 30.4928 24.767C30.4928 24.2683 30.3498 23.8613 30.0638 23.546C29.7778 23.2233 29.3965 23.062 28.9198 23.062C28.4578 23.062 28.0875 23.2233 27.8088 23.546C27.5302 23.8613 27.3908 24.2683 27.3908 24.767C27.3908 25.2657 27.5302 25.6763 27.8088 25.999C28.0875 26.3143 28.4578 26.472 28.9198 26.472ZM37.8447 23.227H36.5687V27.99H34.6107V23.227H33.3347V21.544H34.6107V19.63H36.5687V21.544H37.8447V23.227ZM41.6473 28.144C41.0019 28.144 40.4226 27.9973 39.9093 27.704C39.4033 27.418 39.0073 27.0183 38.7213 26.505C38.4353 25.9917 38.2923 25.4123 38.2923 24.767C38.2923 24.1217 38.4353 23.5423 38.7213 23.029C39.0073 22.5157 39.4033 22.116 39.9093 21.83C40.4226 21.5367 41.0019 21.39 41.6473 21.39C42.2926 21.39 42.8683 21.5367 43.3743 21.83C43.8876 22.116 44.2873 22.5157 44.5733 23.029C44.8593 23.5423 45.0023 24.1217 45.0023 24.767C45.0023 24.9797 44.9876 25.1887 44.9583 25.394H40.2393C40.3126 25.768 40.4739 26.0577 40.7233 26.263C40.9726 26.4683 41.2806 26.571 41.6473 26.571C41.9259 26.571 42.1716 26.527 42.3843 26.439C42.6043 26.3437 42.7546 26.219 42.8353 26.065H44.8043C44.6943 26.4757 44.4889 26.835 44.1883 27.143C43.8876 27.4583 43.5173 27.704 43.0773 27.88C42.6373 28.056 42.1606 28.144 41.6473 28.144ZM43.0883 24.129C43.0076 23.7403 42.8426 23.447 42.5933 23.249C42.3439 23.0437 42.0286 22.941 41.6473 22.941C41.2659 22.941 40.9543 23.0437 40.7123 23.249C40.4703 23.447 40.3089 23.7403 40.2283 24.129H43.0883ZM11.8057 32.025H15.2487C16.0187 32.025 16.6787 32.1607 17.2287 32.432C17.786 32.7033 18.2113 33.0847 18.5047 33.576C18.798 34.0673 18.9447 34.643 18.9447 35.303C18.9447 35.9703 18.798 36.5533 18.5047 37.052C18.2113 37.5433 17.786 37.9247 17.2287 38.196C16.6787 38.4673 16.0187 38.603 15.2487 38.603H13.8077V40.99H11.8057V32.025ZM15.1607 36.832C15.7253 36.832 16.1617 36.7 16.4697 36.436C16.785 36.172 16.9427 35.7943 16.9427 35.303C16.9427 34.8117 16.785 34.4377 16.4697 34.181C16.1617 33.9243 15.7253 33.796 15.1607 33.796H13.8077V36.832H15.1607ZM20.9474 31.431C21.2921 31.431 21.5781 31.5447 21.8054 31.772C22.0328 31.9993 22.1464 32.2853 22.1464 32.63C22.1464 32.9747 22.0328 33.2607 21.8054 33.488C21.5781 33.7153 21.2921 33.829 20.9474 33.829C20.6028 33.829 20.3168 33.7153 20.0894 33.488C19.8621 33.2607 19.7484 32.9747 19.7484 32.63C19.7484 32.2853 19.8621 31.9993 20.0894 31.772C20.3168 31.5447 20.6028 31.431 20.9474 31.431ZM21.9264 41.012H19.9684V34.544H21.9264V41.012ZM29.6982 38.669C29.5295 39.417 29.1555 40.0147 28.5762 40.462C27.9969 40.9167 27.3002 41.144 26.4862 41.144C25.8335 41.144 25.2469 40.9973 24.7262 40.704C24.2055 40.418 23.7985 40.0183 23.5052 39.505C23.2119 38.9917 23.0652 38.4123 23.0652 37.767C23.0652 37.1217 23.2119 36.5423 23.5052 36.029C23.7985 35.5157 24.2055 35.116 24.7262 34.83C25.2469 34.5367 25.8335 34.39 26.4862 34.39C27.0362 34.39 27.5385 34.5 27.9932 34.72C28.4479 34.9327 28.8219 35.226 29.1152 35.6C29.4085 35.974 29.5919 36.3883 29.6652 36.843H27.6852C27.6045 36.6157 27.4579 36.436 27.2452 36.304C27.0399 36.1647 26.7869 36.095 26.4862 36.095C26.0315 36.095 25.6649 36.2527 25.3862 36.568C25.1149 36.876 24.9792 37.2757 24.9792 37.767C24.9792 38.2583 25.1149 38.6617 25.3862 38.977C25.6649 39.285 26.0315 39.439 26.4862 39.439C26.7869 39.439 27.0435 39.3693 27.2562 39.23C27.4762 39.0907 27.6302 38.9037 27.7182 38.669H29.6982ZM33.4926 38.625L32.7116 39.505V40.99H30.7536V31.75H32.7116V37.173L34.9886 34.544H37.1666L34.6916 37.294L37.2986 40.99H35.0656L33.4926 38.625ZM40.6536 41.144C40.0083 41.144 39.4289 40.9973 38.9156 40.704C38.4096 40.418 38.0136 40.0183 37.7276 39.505C37.4416 38.9917 37.2986 38.4123 37.2986 37.767C37.2986 37.1217 37.4416 36.5423 37.7276 36.029C38.0136 35.5157 38.4096 35.116 38.9156 34.83C39.4289 34.5367 40.0083 34.39 40.6536 34.39C41.2989 34.39 41.8746 34.5367 42.3806 34.83C42.8939 35.116 43.2936 35.5157 43.5796 36.029C43.8656 36.5423 44.0086 37.1217 44.0086 37.767C44.0086 37.9797 43.9939 38.1887 43.9646 38.394H39.2456C39.3189 38.768 39.4803 39.0577 39.7296 39.263C39.9789 39.4683 40.2869 39.571 40.6536 39.571C40.9323 39.571 41.1779 39.527 41.3906 39.439C41.6106 39.3437 41.7609 39.219 41.8416 39.065H43.8106C43.7006 39.4757 43.4953 39.835 43.1946 40.143C42.8939 40.4583 42.5236 40.704 42.0836 40.88C41.6436 41.056 41.1669 41.144 40.6536 41.144ZM42.0946 37.129C42.0139 36.7403 41.8489 36.447 41.5996 36.249C41.3503 36.0437 41.0349 35.941 40.6536 35.941C40.2723 35.941 39.9606 36.0437 39.7186 36.249C39.4766 36.447 39.3153 36.7403 39.2346 37.129H42.0946ZM45.1589 34.544H47.1169V35.204C47.5202 34.6613 48.1215 34.39 48.9209 34.39C49.2729 34.39 49.5552 34.4267 49.7679 34.5L49.7899 36.337C49.5112 36.1903 49.1775 36.117 48.7889 36.117C48.2682 36.117 47.8575 36.2563 47.5569 36.535C47.2635 36.8137 47.1169 37.1987 47.1169 37.69V40.99H45.1589V34.544Z" fill="#181818"/>
</svg>
