<svg width="60" height="60" viewBox="0 0 60 60" fill="none" xmlns="http://www.w3.org/2000/svg">
<rect width="60" height="60" fill="white"/>
<path d="M50.4427 28.39C50.978 28.39 51.4657 28.478 51.9057 28.654C52.3457 28.8227 52.6977 29.0647 52.9617 29.38C53.2257 29.6953 53.3687 30.062 53.3907 30.48H51.4987C51.4694 30.282 51.352 30.128 51.1467 30.018C50.9487 29.9007 50.703 29.842 50.4097 29.842C50.1164 29.842 49.8707 29.8897 49.6727 29.985C49.482 30.073 49.3867 30.1903 49.3867 30.337C49.3867 30.491 49.5004 30.6157 49.7277 30.711C49.955 30.8063 50.351 30.898 50.9157 30.986C51.847 31.1253 52.5107 31.3563 52.9067 31.679C53.3027 32.0017 53.5007 32.4453 53.5007 33.01C53.5007 33.4353 53.365 33.8093 53.0937 34.132C52.8224 34.4547 52.4557 34.704 51.9937 34.88C51.5317 35.056 51.0257 35.144 50.4757 35.144C49.9184 35.144 49.4124 35.0523 48.9577 34.869C48.5104 34.693 48.151 34.44 47.8797 34.11C47.6157 33.78 47.4727 33.395 47.4507 32.955H49.3427C49.372 33.1603 49.4967 33.329 49.7167 33.461C49.9367 33.5857 50.2007 33.648 50.5087 33.648C50.824 33.648 51.0844 33.5967 51.2897 33.494C51.495 33.3913 51.5977 33.2667 51.5977 33.12C51.5977 32.966 51.4767 32.8377 51.2347 32.735C50.9927 32.625 50.5967 32.5297 50.0467 32.449C49.2034 32.3243 48.5654 32.1117 48.1327 31.811C47.7074 31.5103 47.4947 31.052 47.4947 30.436C47.4947 30.0253 47.623 29.666 47.8797 29.358C48.1437 29.05 48.4994 28.8117 48.9467 28.643C49.394 28.4743 49.8927 28.39 50.4427 28.39Z" fill="#E6E8EC"/>
<path d="M45.3 27.829C44.9553 27.829 44.6693 27.7153 44.442 27.488C44.2146 27.2606 44.101 26.9746 44.101 26.63C44.101 26.2853 44.2146 25.9993 44.442 25.772C44.6693 25.5446 44.9553 25.431 45.3 25.431C45.6446 25.431 45.9306 25.5446 46.158 25.772C46.3853 25.9993 46.499 26.2853 46.499 26.63C46.499 26.9746 46.3853 27.2606 46.158 27.488C45.9306 27.7153 45.6446 27.829 45.3 27.829ZM44.178 37.729C43.7893 37.729 43.463 37.707 43.199 37.663V36.024C43.3163 36.0386 43.4923 36.046 43.727 36.046C43.9103 36.046 44.0533 35.991 44.156 35.881C44.266 35.7783 44.321 35.6316 44.321 35.441V28.544H46.279V35.606C46.279 36.2366 46.092 36.7463 45.718 37.135C45.344 37.531 44.8306 37.729 44.178 37.729Z" fill="#E6E8EC"/>
<path d="M41.9784 32.878C42.2938 32.878 42.5541 32.9843 42.7594 33.197C42.9648 33.4023 43.0674 33.6627 43.0674 33.978C43.0674 34.2933 42.9648 34.5537 42.7594 34.759C42.5541 34.9717 42.2938 35.078 41.9784 35.078C41.6631 35.078 41.3991 34.9717 41.1864 34.759C40.9811 34.5537 40.8784 34.2933 40.8784 33.978C40.8784 33.6627 40.9811 33.4023 41.1864 33.197C41.3991 32.9843 41.6631 32.878 41.9784 32.878Z" fill="#E6E8EC"/>
<path d="M40.5679 30.227H39.2919V34.99H37.3339V30.227H36.0579V28.544H37.3339V26.63H39.2919V28.544H40.5679V30.227Z" fill="#E6E8EC"/>
<path d="M30.8718 28.544H32.8298V29.204C33.2332 28.6613 33.8345 28.39 34.6338 28.39C34.9858 28.39 35.2682 28.4267 35.4808 28.5L35.5028 30.337C35.2242 30.1903 34.8905 30.117 34.5018 30.117C33.9812 30.117 33.5705 30.2563 33.2698 30.535C32.9765 30.8137 32.8298 31.1987 32.8298 31.69V34.99H30.8718V28.544Z" fill="#E6E8EC"/>
<path d="M25.5879 35.144C24.9792 35.144 24.4365 34.9973 23.9599 34.704C23.4832 34.418 23.1129 34.0183 22.8489 33.505C22.5849 32.9917 22.4529 32.4123 22.4529 31.767C22.4529 31.1217 22.5849 30.5423 22.8489 30.029C23.1129 29.5157 23.4832 29.116 23.9599 28.83C24.4365 28.5367 24.9792 28.39 25.5879 28.39C26.4165 28.39 27.0325 28.6613 27.4359 29.204V28.544H29.3939V34.99H27.4359V34.33C27.0325 34.8727 26.4165 35.144 25.5879 35.144ZM25.8959 33.472C26.3725 33.472 26.7539 33.3143 27.0399 32.999C27.3259 32.6763 27.4689 32.2657 27.4689 31.767C27.4689 31.2683 27.3259 30.8613 27.0399 30.546C26.7539 30.2233 26.3725 30.062 25.8959 30.062C25.4339 30.062 25.0635 30.2233 24.7849 30.546C24.5062 30.8613 24.3669 31.2683 24.3669 31.767C24.3669 32.2657 24.5062 32.6763 24.7849 32.999C25.0635 33.3143 25.4339 33.472 25.8959 33.472Z" fill="#E6E8EC"/>
<path d="M15.1775 25.75H17.1355V29.204C17.5388 28.6613 18.1402 28.39 18.9395 28.39C19.4382 28.39 19.8782 28.5073 20.2595 28.742C20.6408 28.9693 20.9342 29.2993 21.1395 29.732C21.3522 30.1647 21.4585 30.6743 21.4585 31.261V34.99H19.5005V31.591C19.5005 31.0997 19.4015 30.7257 19.2035 30.469C19.0128 30.205 18.7342 30.073 18.3675 30.073C17.9862 30.073 17.6855 30.216 17.4655 30.502C17.2455 30.788 17.1355 31.1803 17.1355 31.679V34.99H15.1775V25.75Z" fill="#E6E8EC"/>
<path d="M14.122 32.669C13.9533 33.417 13.5793 34.0147 13 34.462C12.4207 34.9167 11.724 35.144 10.91 35.144C10.2573 35.144 9.67068 34.9973 9.15001 34.704C8.62935 34.418 8.22235 34.0183 7.92901 33.505C7.63568 32.9917 7.48901 32.4123 7.48901 31.767C7.48901 31.1217 7.63568 30.5423 7.92901 30.029C8.22235 29.5157 8.62935 29.116 9.15001 28.83C9.67068 28.5367 10.2573 28.39 10.91 28.39C11.46 28.39 11.9623 28.5 12.417 28.72C12.8717 28.9327 13.2457 29.226 13.539 29.6C13.8323 29.974 14.0157 30.3883 14.089 30.843H12.109C12.0283 30.6157 11.8817 30.436 11.669 30.304C11.4637 30.1647 11.2107 30.095 10.91 30.095C10.4553 30.095 10.0887 30.2527 9.81001 30.568C9.53868 30.876 9.40301 31.2757 9.40301 31.767C9.40301 32.2583 9.53868 32.6617 9.81001 32.977C10.0887 33.285 10.4553 33.439 10.91 33.439C11.2107 33.439 11.4673 33.3693 11.68 33.23C11.9 33.0907 12.054 32.9037 12.142 32.669H14.122Z" fill="#E6E8EC"/>
</svg>
