<svg width="60" height="60" viewBox="0 0 60 60" fill="none" xmlns="http://www.w3.org/2000/svg">
<rect width="60" height="60" fill="white"/>
<rect x="7" y="38" width="22" height="4" rx="2" fill="#181818"/>
<rect x="7" y="19" width="22" height="17" rx="3" fill="#181818"/>
<rect x="31" y="38" width="22" height="4" rx="2" fill="#181818"/>
<rect x="31" y="19" width="22" height="17" rx="3" fill="#181818"/>
<mask id="mask0_106_25" style="mask-type:alpha" maskUnits="userSpaceOnUse" x="13" y="22" width="10" height="10">
<path d="M13 26.4444C13 24.3494 13 23.3017 13.6511 22.6511C14.3017 22 15.3494 22 17.4444 22H18.5556C20.6506 22 21.6983 22 22.3489 22.6511C23 23.3017 23 24.3494 23 26.4444V27.5556C23 29.6506 23 30.6983 22.3489 31.3489C21.6983 32 20.6506 32 18.5556 32H17.4444C15.3494 32 14.3017 32 13.6511 31.3489C13 30.6983 13 29.6506 13 27.5556V26.4444Z" fill="black"/>
</mask>
<g mask="url(#mask0_106_25)">
<path d="M18.3828 28.4278L17.5511 27.5206C16.8456 26.7511 16.4933 26.3661 16.0344 26.3456C15.5761 26.3245 15.19 26.6756 14.4178 27.3778L13.3506 28.3483C13.1844 28.4989 13.1017 28.5745 13.0544 28.6722C13.0497 28.6825 13.0452 28.6928 13.0411 28.7033C13 28.8033 13 28.9161 13 29.14C13 31.1783 13 32.1972 13.6017 32.8383C13.6622 32.9028 13.7261 32.9633 13.7939 33.02C14.4672 33.585 15.485 33.5289 17.5194 33.4156L19.3594 33.3133C20.8094 33.2328 21.535 33.1922 22.0539 32.8278C22.2989 32.6556 22.5067 32.4367 22.665 32.1828C23 31.6439 23 30.9172 23 29.465V29.3572C23 29.1306 23 29.0172 22.9789 28.91C22.9501 28.767 22.8935 28.6311 22.8122 28.51C22.7522 28.4183 22.6717 28.3383 22.5122 28.1783C22.1456 27.8122 21.9622 27.6295 21.7583 27.545C21.4862 27.4324 21.1805 27.4324 20.9083 27.545C20.7039 27.6295 20.5211 27.8122 20.155 28.1783L19.8733 28.46C19.5444 28.7889 19.3794 28.9539 19.18 28.9722C19.1378 28.9761 19.0953 28.9752 19.0533 28.9695C18.8544 28.9422 18.6972 28.7711 18.3828 28.4278Z" fill="white"/>
</g>
<path d="M20.2222 26.4445C20.8358 26.4445 21.3333 25.947 21.3333 25.3333C21.3333 24.7197 20.8358 24.2222 20.2222 24.2222C19.6085 24.2222 19.1111 24.7197 19.1111 25.3333C19.1111 25.947 19.6085 26.4445 20.2222 26.4445Z" fill="white"/>
<mask id="mask1_106_25" style="mask-type:alpha" maskUnits="userSpaceOnUse" x="37" y="22" width="10" height="10">
<path d="M37 26.4444C37 24.3494 37 23.3017 37.6511 22.6511C38.3017 22 39.3494 22 41.4444 22H42.5556C44.6506 22 45.6983 22 46.3489 22.6511C47 23.3017 47 24.3494 47 26.4444V27.5556C47 29.6506 47 30.6983 46.3489 31.3489C45.6983 32 44.6506 32 42.5556 32H41.4444C39.3494 32 38.3017 32 37.6511 31.3489C37 30.6983 37 29.6506 37 27.5556V26.4444Z" fill="black"/>
</mask>
<g mask="url(#mask1_106_25)">
<path d="M42.3828 28.4278L41.5511 27.5206C40.8456 26.7511 40.4933 26.3661 40.0344 26.3456C39.5761 26.3245 39.19 26.6756 38.4178 27.3778L37.3506 28.3483C37.1844 28.4989 37.1017 28.5745 37.0544 28.6722C37.0497 28.6825 37.0452 28.6928 37.0411 28.7033C37 28.8033 37 28.9161 37 29.14C37 31.1783 37 32.1972 37.6017 32.8383C37.6622 32.9028 37.7261 32.9633 37.7939 33.02C38.4672 33.585 39.485 33.5289 41.5194 33.4156L43.3594 33.3133C44.8094 33.2328 45.535 33.1922 46.0539 32.8278C46.2989 32.6556 46.5067 32.4367 46.665 32.1828C47 31.6439 47 30.9172 47 29.465V29.3572C47 29.1306 47 29.0172 46.9789 28.91C46.9501 28.767 46.8935 28.6311 46.8122 28.51C46.7522 28.4183 46.6717 28.3383 46.5122 28.1783C46.1456 27.8122 45.9622 27.6295 45.7583 27.545C45.4862 27.4324 45.1805 27.4324 44.9083 27.545C44.7039 27.6295 44.5211 27.8122 44.155 28.1783L43.8733 28.46C43.5444 28.7889 43.3794 28.9539 43.18 28.9722C43.1378 28.9761 43.0953 28.9752 43.0533 28.9695C42.8544 28.9422 42.6972 28.7711 42.3828 28.4278Z" fill="white"/>
</g>
<path d="M44.2222 26.4445C44.8358 26.4445 45.3333 25.947 45.3333 25.3333C45.3333 24.7197 44.8358 24.2222 44.2222 24.2222C43.6085 24.2222 43.1111 24.7197 43.1111 25.3333C43.1111 25.947 43.6085 26.4445 44.2222 26.4445Z" fill="white"/>
</svg>
