<svg width="60" height="60" viewBox="0 0 60 60" fill="none" xmlns="http://www.w3.org/2000/svg">
<rect width="60" height="60" fill="white"/>
<path d="M12.5384 22C12.6869 22 12.8294 22.059 12.9344 22.164C13.0394 22.269 13.0984 22.4115 13.0984 22.56V23.6072H19.112V22.5672C19.112 22.4187 19.171 22.2762 19.276 22.1712C19.381 22.0662 19.5235 22.0072 19.672 22.0072C19.8205 22.0072 19.963 22.0662 20.068 22.1712C20.173 22.2762 20.232 22.4187 20.232 22.5672V23.6072H22.4C22.8242 23.6072 23.2311 23.7757 23.5311 24.0755C23.8311 24.3754 23.9998 24.7822 24 25.2064V36.4008C23.9998 36.825 23.8311 37.2318 23.5311 37.5317C23.2311 37.8315 22.8242 38 22.4 38H9.6C9.17579 38 8.76895 37.8315 8.46891 37.5317C8.16888 37.2318 8.00021 36.825 8 36.4008V25.2064C8.00021 24.7822 8.16888 24.3754 8.46891 24.0755C8.76895 23.7757 9.17579 23.6072 9.6 23.6072H11.9784V22.5592C11.9786 22.4108 12.0377 22.2686 12.1427 22.1637C12.2477 22.0589 12.39 22 12.5384 22ZM9.12 28.1936V36.4008C9.12 36.4638 9.13242 36.5263 9.15654 36.5845C9.18066 36.6427 9.21602 36.6956 9.26059 36.7402C9.30516 36.7848 9.35808 36.8201 9.41631 36.8443C9.47455 36.8684 9.53697 36.8808 9.6 36.8808H22.4C22.463 36.8808 22.5255 36.8684 22.5837 36.8443C22.6419 36.8201 22.6948 36.7848 22.7394 36.7402C22.784 36.6956 22.8193 36.6427 22.8435 36.5845C22.8676 36.5263 22.88 36.4638 22.88 36.4008V28.2048L9.12 28.1936ZM13.3336 33.6952V35.028H12V33.6952H13.3336ZM16.6664 33.6952V35.028H15.3336V33.6952H16.6664ZM20 33.6952V35.028H18.6664V33.6952H20ZM13.3336 30.5136V31.8464H12V30.5136H13.3336ZM16.6664 30.5136V31.8464H15.3336V30.5136H16.6664ZM20 30.5136V31.8464H18.6664V30.5136H20ZM11.9784 24.7264H9.6C9.53697 24.7264 9.47455 24.7388 9.41631 24.7629C9.35808 24.7871 9.30516 24.8224 9.26059 24.867C9.21602 24.9116 9.18066 24.9645 9.15654 25.0227C9.13242 25.0809 9.12 25.1434 9.12 25.2064V27.0744L22.88 27.0856V25.2064C22.88 25.1434 22.8676 25.0809 22.8435 25.0227C22.8193 24.9645 22.784 24.9116 22.7394 24.867C22.6948 24.8224 22.6419 24.7871 22.5837 24.7629C22.5255 24.7388 22.463 24.7264 22.4 24.7264H20.232V25.4696C20.232 25.6181 20.173 25.7606 20.068 25.8656C19.963 25.9706 19.8205 26.0296 19.672 26.0296C19.5235 26.0296 19.381 25.9706 19.276 25.8656C19.171 25.7606 19.112 25.6181 19.112 25.4696V24.7264H13.0984V25.4624C13.0984 25.6109 13.0394 25.7534 12.9344 25.8584C12.8294 25.9634 12.6869 26.0224 12.5384 26.0224C12.3899 26.0224 12.2474 25.9634 12.1424 25.8584C12.0374 25.7534 11.9784 25.6109 11.9784 25.4624V24.7264Z" fill="#181818"/>
<path d="M41.5384 22C41.6869 22 41.8294 22.059 41.9344 22.164C42.0394 22.269 42.0984 22.4115 42.0984 22.56V23.6072H48.112V22.5672C48.112 22.4187 48.171 22.2762 48.276 22.1712C48.381 22.0662 48.5235 22.0072 48.672 22.0072C48.8205 22.0072 48.963 22.0662 49.068 22.1712C49.173 22.2762 49.232 22.4187 49.232 22.5672V23.6072H51.4C51.8242 23.6072 52.2311 23.7757 52.5311 24.0755C52.8311 24.3754 52.9998 24.7822 53 25.2064V36.4008C52.9998 36.825 52.8311 37.2318 52.5311 37.5317C52.2311 37.8315 51.8242 38 51.4 38H38.6C38.1758 38 37.7689 37.8315 37.4689 37.5317C37.1689 37.2318 37.0002 36.825 37 36.4008V25.2064C37.0002 24.7822 37.1689 24.3754 37.4689 24.0755C37.7689 23.7757 38.1758 23.6072 38.6 23.6072H40.9784V22.5592C40.9786 22.4108 41.0377 22.2686 41.1427 22.1637C41.2477 22.0589 41.39 22 41.5384 22ZM38.12 28.1936V36.4008C38.12 36.4638 38.1324 36.5263 38.1565 36.5845C38.1807 36.6427 38.216 36.6956 38.2606 36.7402C38.3052 36.7848 38.3581 36.8201 38.4163 36.8443C38.4745 36.8684 38.537 36.8808 38.6 36.8808H51.4C51.463 36.8808 51.5255 36.8684 51.5837 36.8443C51.6419 36.8201 51.6948 36.7848 51.7394 36.7402C51.784 36.6956 51.8193 36.6427 51.8435 36.5845C51.8676 36.5263 51.88 36.4638 51.88 36.4008V28.2048L38.12 28.1936ZM42.3336 33.6952V35.028H41V33.6952H42.3336ZM45.6664 33.6952V35.028H44.3336V33.6952H45.6664ZM49 33.6952V35.028H47.6664V33.6952H49ZM42.3336 30.5136V31.8464H41V30.5136H42.3336ZM45.6664 30.5136V31.8464H44.3336V30.5136H45.6664ZM49 30.5136V31.8464H47.6664V30.5136H49ZM40.9784 24.7264H38.6C38.537 24.7264 38.4745 24.7388 38.4163 24.7629C38.3581 24.7871 38.3052 24.8224 38.2606 24.867C38.216 24.9116 38.1807 24.9645 38.1565 25.0227C38.1324 25.0809 38.12 25.1434 38.12 25.2064V27.0744L51.88 27.0856V25.2064C51.88 25.1434 51.8676 25.0809 51.8435 25.0227C51.8193 24.9645 51.784 24.9116 51.7394 24.867C51.6948 24.8224 51.6419 24.7871 51.5837 24.7629C51.5255 24.7388 51.463 24.7264 51.4 24.7264H49.232V25.4696C49.232 25.6181 49.173 25.7606 49.068 25.8656C48.963 25.9706 48.8205 26.0296 48.672 26.0296C48.5235 26.0296 48.381 25.9706 48.276 25.8656C48.171 25.7606 48.112 25.6181 48.112 25.4696V24.7264H42.0984V25.4624C42.0984 25.6109 42.0394 25.7534 41.9344 25.8584C41.8294 25.9634 41.6869 26.0224 41.5384 26.0224C41.3899 26.0224 41.2474 25.9634 41.1424 25.8584C41.0374 25.7534 40.9784 25.6109 40.9784 25.4624V24.7264Z" fill="#181818"/>
<path d="M28 29.506C28.3887 29.1687 28.88 29 29.474 29C29.7013 29 29.914 29.033 30.112 29.099C30.31 29.1577 30.552 29.2493 30.838 29.374C31.102 29.4913 31.322 29.5793 31.498 29.638C31.6813 29.6967 31.8683 29.726 32.059 29.726C32.3303 29.726 32.565 29.6783 32.763 29.583C32.9683 29.4877 33.1663 29.3337 33.357 29.121V30.848C32.961 31.244 32.4697 31.442 31.883 31.442C31.663 31.442 31.4503 31.409 31.245 31.343C31.0397 31.277 30.8013 31.1853 30.53 31.068C30.2513 30.9507 30.024 30.8627 29.848 30.804C29.672 30.7453 29.4887 30.716 29.298 30.716C29.0267 30.716 28.7883 30.7563 28.583 30.837C28.385 30.9177 28.1907 31.0497 28 31.233V29.506Z" fill="#181818"/>
</svg>
