<svg width="60" height="60" viewBox="0 0 60 60" fill="none" xmlns="http://www.w3.org/2000/svg">
<rect width="60" height="60" fill="white"/>
<rect x="7" y="29" width="14" height="11" rx="3" fill="#181818"/>
<mask id="mask0_111_121" style="mask-type:alpha" maskUnits="userSpaceOnUse" x="10" y="31" width="8" height="7">
<path d="M10.8577 33.9608C10.8577 32.6594 10.8577 32.0086 11.2596 31.6045C11.6611 31.2 12.3078 31.2 13.6009 31.2H14.2868C15.5799 31.2 16.2266 31.2 16.6281 31.6045C17.03 32.0086 17.03 32.6594 17.03 33.9608V34.651C17.03 35.9523 17.03 36.6032 16.6281 37.0073C16.2266 37.4118 15.5799 37.4118 14.2868 37.4118H13.6009C12.3078 37.4118 11.6611 37.4118 11.2596 37.0073C10.8577 36.6032 10.8577 35.9523 10.8577 34.651V33.9608Z" fill="black"/>
</mask>
<g mask="url(#mask0_111_121)">
<path d="M14.1801 35.1928L13.6668 34.6292C13.2313 34.1513 13.0139 33.9121 12.7306 33.8994C12.4477 33.8862 12.2094 34.1043 11.7328 34.5405L11.074 35.1434C10.9715 35.237 10.9204 35.2839 10.8913 35.3446C10.8883 35.351 10.8856 35.3574 10.883 35.364C10.8577 35.4261 10.8577 35.4961 10.8577 35.6352C10.8577 36.9014 10.8577 37.5343 11.229 37.9325C11.2664 37.9725 11.3058 38.0102 11.3477 38.0454C11.7633 38.3963 12.3915 38.3615 13.6472 38.2911L14.783 38.2276C15.6779 38.1775 16.1258 38.1523 16.4461 37.926C16.5973 37.819 16.7255 37.683 16.8233 37.5253C17.03 37.1906 17.03 36.7392 17.03 35.8371V35.7701C17.03 35.6293 17.03 35.5589 17.017 35.4923C16.9993 35.4035 16.9643 35.3191 16.9141 35.2439C16.8771 35.1869 16.8274 35.1372 16.729 35.0378C16.5026 34.8104 16.3895 34.6969 16.2636 34.6444C16.0957 34.5744 15.907 34.5744 15.739 34.6444C15.6128 34.6969 15.5 34.8104 15.274 35.0378L15.1001 35.2128C14.8971 35.4171 14.7953 35.5196 14.6722 35.531C14.6461 35.5334 14.6199 35.5328 14.594 35.5293C14.4712 35.5123 14.3742 35.4061 14.1801 35.1928Z" fill="white"/>
</g>
<path d="M15.3155 33.9608C15.6942 33.9608 16.0013 33.6518 16.0013 33.2706C16.0013 32.8894 15.6942 32.5804 15.3155 32.5804C14.9367 32.5804 14.6296 32.8894 14.6296 33.2706C14.6296 33.6518 14.9367 33.9608 15.3155 33.9608Z" fill="white"/>
<rect x="23" y="29" width="15" height="11" rx="3" fill="#181818"/>
<rect x="40" y="29" width="14" height="11" rx="3" fill="#181818"/>
<mask id="mask1_111_121" style="mask-type:alpha" maskUnits="userSpaceOnUse" x="27" y="31" width="7" height="7">
<path d="M27.2529 33.9608C27.2529 32.6594 27.2529 32.0086 27.6548 31.6045C28.0564 31.2 28.7031 31.2 29.9962 31.2H30.682C31.9751 31.2 32.6219 31.2 33.0234 31.6045C33.4253 32.0086 33.4253 32.6594 33.4253 33.9608V34.651C33.4253 35.9523 33.4253 36.6032 33.0234 37.0073C32.6219 37.4118 31.9751 37.4118 30.682 37.4118H29.9962C28.7031 37.4118 28.0564 37.4118 27.6548 37.0073C27.2529 36.6032 27.2529 35.9523 27.2529 34.651V33.9608Z" fill="black"/>
</mask>
<g mask="url(#mask1_111_121)">
<path d="M30.5754 35.1928L30.062 34.6292C29.6265 34.1513 29.4091 33.9121 29.1259 33.8994C28.843 33.8862 28.6047 34.1043 28.128 34.5405L27.4693 35.1434C27.3668 35.237 27.3157 35.2839 27.2865 35.3446C27.2836 35.351 27.2809 35.3574 27.2783 35.364C27.2529 35.4261 27.2529 35.4961 27.2529 35.6352C27.2529 36.9014 27.2529 37.5343 27.6243 37.9325C27.6617 37.9725 27.7011 38.0102 27.7429 38.0454C28.1586 38.3963 28.7868 38.3615 30.0425 38.2911L31.1782 38.2276C32.0732 38.1775 32.521 38.1523 32.8413 37.926C32.9925 37.819 33.1208 37.683 33.2185 37.5253C33.4253 37.1906 33.4253 36.7392 33.4253 35.8371V35.7701C33.4253 35.6293 33.4253 35.5589 33.4123 35.4923C33.3945 35.4035 33.3596 35.3191 33.3094 35.2439C33.2724 35.1869 33.2226 35.1372 33.1242 35.0378C32.8979 34.8104 32.7847 34.6969 32.6589 34.6444C32.4909 34.5744 32.3022 34.5744 32.1342 34.6444C32.0081 34.6969 31.8952 34.8104 31.6693 35.0378L31.4954 35.2128C31.2924 35.4171 31.1906 35.5196 31.0675 35.531C31.0414 35.5334 31.0152 35.5328 30.9893 35.5293C30.8665 35.5123 30.7695 35.4061 30.5754 35.1928Z" fill="white"/>
</g>
<path d="M31.7107 33.9608C32.0895 33.9608 32.3965 33.6518 32.3965 33.2706C32.3965 32.8894 32.0895 32.5804 31.7107 32.5804C31.332 32.5804 31.0249 32.8894 31.0249 33.2706C31.0249 33.6518 31.332 33.9608 31.7107 33.9608Z" fill="white"/>
<mask id="mask2_111_121" style="mask-type:alpha" maskUnits="userSpaceOnUse" x="43" y="31" width="7" height="7">
<path d="M43.6482 33.9608C43.6482 32.6594 43.6482 32.0086 44.0501 31.6045C44.4516 31.2 45.0984 31.2 46.3915 31.2H47.0773C48.3704 31.2 49.0171 31.2 49.4187 31.6045C49.8206 32.0086 49.8206 32.6594 49.8206 33.9608V34.651C49.8206 35.9523 49.8206 36.6032 49.4187 37.0073C49.0171 37.4118 48.3704 37.4118 47.0773 37.4118H46.3915C45.0984 37.4118 44.4516 37.4118 44.0501 37.0073C43.6482 36.6032 43.6482 35.9523 43.6482 34.651V33.9608Z" fill="black"/>
</mask>
<g mask="url(#mask2_111_121)">
<path d="M46.9706 35.1928L46.4573 34.6292C46.0218 34.1513 45.8044 33.9121 45.5212 33.8994C45.2383 33.8862 44.9999 34.1043 44.5233 34.5405L43.8646 35.1434C43.762 35.237 43.7109 35.2839 43.6818 35.3446C43.6789 35.351 43.6761 35.3574 43.6736 35.364C43.6482 35.4261 43.6482 35.4961 43.6482 35.6352C43.6482 36.9014 43.6482 37.5343 44.0196 37.9325C44.0569 37.9725 44.0964 38.0102 44.1382 38.0454C44.5538 38.3963 45.182 38.3615 46.4378 38.2911L47.5735 38.2276C48.4685 38.1775 48.9163 38.1523 49.2366 37.926C49.3878 37.819 49.5161 37.683 49.6138 37.5253C49.8206 37.1906 49.8206 36.7392 49.8206 35.8371V35.7701C49.8206 35.6293 49.8206 35.5589 49.8075 35.4923C49.7898 35.4035 49.7548 35.3191 49.7047 35.2439C49.6676 35.1869 49.6179 35.1372 49.5195 35.0378C49.2932 34.8104 49.18 34.6969 49.0542 34.6444C48.8862 34.5744 48.6975 34.5744 48.5295 34.6444C48.4033 34.6969 48.2905 34.8104 48.0645 35.0378L47.8907 35.2128C47.6877 35.4171 47.5858 35.5196 47.4627 35.531C47.4367 35.5334 47.4104 35.5328 47.3845 35.5293C47.2618 35.5123 47.1647 35.4061 46.9706 35.1928Z" fill="white"/>
</g>
<path d="M48.106 33.9608C48.4848 33.9608 48.7918 33.6518 48.7918 33.2706C48.7918 32.8894 48.4848 32.5804 48.106 32.5804C47.7272 32.5804 47.4202 32.8894 47.4202 33.2706C47.4202 33.6518 47.7272 33.9608 48.106 33.9608Z" fill="white"/>
<rect x="7.5" y="21.5" width="12" height="5" rx="2.5" fill="white" stroke="#181818"/>
</svg>
