<svg width="60" height="60" viewBox="0 0 60 60" fill="none" xmlns="http://www.w3.org/2000/svg">
<rect width="60" height="60" fill="white"/>
<rect x="7.5" y="11.5" width="46" height="29" rx="3.5" stroke="#181818"/>
<rect x="11" y="15" width="13" height="4" rx="2" fill="#181818"/>
<path d="M51.4386 42.5994C51.9325 42.5994 52.3693 42.7323 52.7492 42.9983C53.1346 43.2588 53.4358 43.6522 53.6529 44.1787C53.8699 44.6997 53.9785 45.3374 53.9785 46.0917C53.9785 46.8461 53.8699 47.4838 53.6529 48.0048C53.4358 48.5258 53.1346 48.9166 52.7492 49.1771C52.3693 49.443 51.9325 49.576 51.4386 49.576C50.9447 49.576 50.5051 49.443 50.1198 49.1771C49.7399 48.9166 49.4414 48.5258 49.2243 48.0048C49.0072 47.4838 48.8987 46.8461 48.8987 46.0917C48.8987 45.3374 49.0072 44.6997 49.2243 44.1787C49.4414 43.6522 49.7399 43.2588 50.1198 42.9983C50.5051 42.7323 50.9447 42.5994 51.4386 42.5994ZM51.4386 43.8937C51.0967 43.8937 50.8199 44.0783 50.6082 44.4473C50.402 44.8164 50.2989 45.3645 50.2989 46.0917C50.2989 46.8135 50.402 47.359 50.6082 47.728C50.8199 48.0971 51.0967 48.2816 51.4386 48.2816C51.7805 48.2816 52.0546 48.0971 52.2608 47.728C52.4725 47.359 52.5783 46.8135 52.5783 46.0917C52.5783 45.3645 52.4725 44.8164 52.2608 44.4473C52.0546 44.0783 51.7805 43.8937 51.4386 43.8937Z" fill="#181818"/>
<path d="M45.7067 42.5994C46.2005 42.5994 46.6374 42.7323 47.0173 42.9983C47.4026 43.2588 47.7038 43.6522 47.9209 44.1787C48.138 44.6997 48.2466 45.3374 48.2466 46.0917C48.2466 46.8461 48.138 47.4838 47.9209 48.0048C47.7038 48.5258 47.4026 48.9166 47.0173 49.1771C46.6374 49.443 46.2005 49.576 45.7067 49.576C45.2128 49.576 44.7732 49.443 44.3879 49.1771C44.008 48.9166 43.7095 48.5258 43.4924 48.0048C43.2753 47.4838 43.1667 46.8461 43.1667 46.0917C43.1667 45.3374 43.2753 44.6997 43.4924 44.1787C43.7095 43.6522 44.008 43.2588 44.3879 42.9983C44.7732 42.7323 45.2128 42.5994 45.7067 42.5994ZM45.7067 43.8937C45.3647 43.8937 45.088 44.0783 44.8763 44.4473C44.6701 44.8164 44.567 45.3645 44.567 46.0917C44.567 46.8135 44.6701 47.359 44.8763 47.728C45.088 48.0971 45.3647 48.2816 45.7067 48.2816C46.0486 48.2816 46.3226 48.0971 46.5289 47.728C46.7405 47.359 46.8464 46.8135 46.8464 46.0917C46.8464 45.3645 46.7405 44.8164 46.5289 44.4473C46.3226 44.0783 46.0486 43.8937 45.7067 43.8937Z" fill="#181818"/>
<path d="M41.8674 49.4132H40.3939V44.0647H39.2217V42.7785H41.8674V49.4132Z" fill="#181818"/>
<path d="M35.8345 49.9016H34.4099L37.3894 42.29H38.814L35.8345 49.9016Z" fill="#181818"/>
<path d="M31.5399 42.5994C32.0338 42.5994 32.4707 42.7323 32.8506 42.9983C33.2359 43.2588 33.5371 43.6522 33.7542 44.1787C33.9713 44.6997 34.0798 45.3374 34.0798 46.0917C34.0798 46.8461 33.9713 47.4838 33.7542 48.0048C33.5371 48.5258 33.2359 48.9166 32.8506 49.1771C32.4707 49.443 32.0338 49.576 31.5399 49.576C31.046 49.576 30.6064 49.443 30.2211 49.1771C29.8412 48.9166 29.5427 48.5258 29.3256 48.0048C29.1085 47.4838 29 46.8461 29 46.0917C29 45.3374 29.1085 44.6997 29.3256 44.1787C29.5427 43.6522 29.8412 43.2588 30.2211 42.9983C30.6064 42.7323 31.046 42.5994 31.5399 42.5994ZM31.5399 43.8937C31.198 43.8937 30.9212 44.0783 30.7096 44.4473C30.5033 44.8164 30.4002 45.3645 30.4002 46.0917C30.4002 46.8135 30.5033 47.359 30.7096 47.728C30.9212 48.0971 31.198 48.2816 31.5399 48.2816C31.8818 48.2816 32.1559 48.0971 32.3621 47.728C32.5738 47.359 32.6796 46.8135 32.6796 46.0917C32.6796 45.3645 32.5738 44.8164 32.3621 44.4473C32.1559 44.0783 31.8818 43.8937 31.5399 43.8937Z" fill="#181818"/>
</svg>
