<svg width="60" height="60" viewBox="0 0 60 60" fill="none" xmlns="http://www.w3.org/2000/svg">
<rect width="60" height="60" fill="white"/>
<line x1="10" y1="52" x2="19" y2="52" stroke="#E6E8EC" stroke-width="2"/>
<line x1="20" y1="52" x2="29" y2="52" stroke="#E6E8EC" stroke-width="2"/>
<line x1="34" y1="49" x2="34" y2="55" stroke="#E6E8EC" stroke-width="2"/>
<line x1="37" y1="49" x2="37" y2="55" stroke="#E6E8EC" stroke-width="2"/>
<mask id="path-6-inside-1_45_532" fill="white">
<path d="M41.6906 50.6906C42.0001 51.8457 42.6208 52.8937 43.485 53.7203C44.3492 54.5469 45.4237 55.1204 46.5914 55.3783C47.7591 55.6362 48.9752 55.5685 50.1072 55.1828C51.2391 54.797 52.2434 54.1079 53.0106 53.1905C53.7778 52.2732 54.2784 51.1629 54.458 49.9806C54.6375 48.7983 54.489 47.5894 54.0287 46.4856C53.5683 45.3819 52.8138 44.4258 51.8474 43.7214C50.881 43.017 49.7398 42.5914 48.5482 42.4911L48 49L41.6906 50.6906Z"/>
</mask>
<path d="M41.6906 50.6906C42.0001 51.8457 42.6208 52.8937 43.485 53.7203C44.3492 54.5469 45.4237 55.1204 46.5914 55.3783C47.7591 55.6362 48.9752 55.5685 50.1072 55.1828C51.2391 54.797 52.2434 54.1079 53.0106 53.1905C53.7778 52.2732 54.2784 51.1629 54.458 49.9806C54.6375 48.7983 54.489 47.5894 54.0287 46.4856C53.5683 45.3819 52.8138 44.4258 51.8474 43.7214C50.881 43.017 49.7398 42.5914 48.5482 42.4911L48 49L41.6906 50.6906Z" fill="#D9D9D9" stroke="#E6E8EC" stroke-width="4" mask="url(#path-6-inside-1_45_532)"/>
<path d="M43.152 50.2989C43.3898 51.1864 43.8667 51.9917 44.5307 52.6268C45.1948 53.262 46.0204 53.7026 46.9176 53.9008C47.8149 54.0989 48.7493 54.047 49.6191 53.7505C50.4888 53.4541 51.2605 52.9246 51.85 52.2198C52.4395 51.5149 52.8242 50.6618 52.9621 49.7533C53.1 48.8448 52.9859 47.916 52.6322 47.0679C52.2785 46.2198 51.6988 45.4851 50.9563 44.9439C50.2137 44.4027 49.3368 44.0757 48.4212 43.9986L48 48.9999L43.152 50.2989Z" fill="white"/>
<path d="M12 34L5 27L12 20" stroke="#E6E8EC" stroke-width="2" stroke-miterlimit="10"/>
<path d="M48 20L55 27L48 34" stroke="#E6E8EC" stroke-width="2" stroke-miterlimit="10"/>
</svg>
