<svg width="60" height="60" viewBox="0 0 60 60" fill="none" xmlns="http://www.w3.org/2000/svg">
<rect width="60" height="60" fill="white"/>
<rect x="7" y="16" width="14" height="11" rx="3" fill="#181818"/>
<mask id="mask0_112_170" style="mask-type:alpha" maskUnits="userSpaceOnUse" x="10" y="18" width="8" height="7">
<path d="M10.8577 20.9608C10.8577 19.6594 10.8577 19.0086 11.2596 18.6045C11.6611 18.2 12.3078 18.2 13.6009 18.2H14.2868C15.5799 18.2 16.2266 18.2 16.6281 18.6045C17.03 19.0086 17.03 19.6594 17.03 20.9608V21.651C17.03 22.9523 17.03 23.6032 16.6281 24.0073C16.2266 24.4118 15.5799 24.4118 14.2868 24.4118H13.6009C12.3078 24.4118 11.6611 24.4118 11.2596 24.0073C10.8577 23.6032 10.8577 22.9523 10.8577 21.651V20.9608Z" fill="black"/>
</mask>
<g mask="url(#mask0_112_170)">
<path d="M14.1801 22.1928L13.6668 21.6292C13.2313 21.1513 13.0139 20.9121 12.7306 20.8994C12.4477 20.8862 12.2094 21.1044 11.7328 21.5406L11.074 22.1434C10.9715 22.237 10.9204 22.2839 10.8913 22.3446C10.8883 22.351 10.8856 22.3574 10.883 22.364C10.8577 22.4261 10.8577 22.4961 10.8577 22.6352C10.8577 23.9014 10.8577 24.5343 11.229 24.9325C11.2664 24.9726 11.3058 25.0102 11.3477 25.0454C11.7633 25.3963 12.3915 25.3615 13.6472 25.2911L14.783 25.2276C15.6779 25.1775 16.1258 25.1524 16.4461 24.926C16.5973 24.819 16.7255 24.683 16.8233 24.5253C17.03 24.1906 17.03 23.7392 17.03 22.8371V22.7701C17.03 22.6293 17.03 22.5589 17.017 22.4923C16.9993 22.4035 16.9643 22.3191 16.9141 22.2439C16.8771 22.1869 16.8274 22.1372 16.729 22.0378C16.5026 21.8104 16.3895 21.6969 16.2636 21.6444C16.0957 21.5744 15.907 21.5744 15.739 21.6444C15.6128 21.6969 15.5 21.8104 15.274 22.0378L15.1001 22.2128C14.8971 22.4171 14.7953 22.5196 14.6722 22.531C14.6461 22.5334 14.6199 22.5328 14.594 22.5293C14.4712 22.5124 14.3742 22.4061 14.1801 22.1928Z" fill="white"/>
</g>
<path d="M15.3155 20.9608C15.6942 20.9608 16.0013 20.6518 16.0013 20.2706C16.0013 19.8894 15.6942 19.5804 15.3155 19.5804C14.9367 19.5804 14.6296 19.8894 14.6296 20.2706C14.6296 20.6518 14.9367 20.9608 15.3155 20.9608Z" fill="white"/>
<rect x="23" y="16" width="15" height="11" rx="3" fill="#181818"/>
<rect x="40" y="16" width="14" height="11" rx="3" fill="#181818"/>
<mask id="mask1_112_170" style="mask-type:alpha" maskUnits="userSpaceOnUse" x="27" y="18" width="7" height="7">
<path d="M27.2529 20.9608C27.2529 19.6594 27.2529 19.0086 27.6548 18.6045C28.0564 18.2 28.7031 18.2 29.9962 18.2H30.682C31.9751 18.2 32.6219 18.2 33.0234 18.6045C33.4253 19.0086 33.4253 19.6594 33.4253 20.9608V21.651C33.4253 22.9523 33.4253 23.6032 33.0234 24.0073C32.6219 24.4118 31.9751 24.4118 30.682 24.4118H29.9962C28.7031 24.4118 28.0564 24.4118 27.6548 24.0073C27.2529 23.6032 27.2529 22.9523 27.2529 21.651V20.9608Z" fill="black"/>
</mask>
<g mask="url(#mask1_112_170)">
<path d="M30.5754 22.1928L30.062 21.6292C29.6265 21.1513 29.4091 20.9121 29.1259 20.8994C28.843 20.8862 28.6047 21.1044 28.128 21.5406L27.4693 22.1434C27.3668 22.237 27.3157 22.2839 27.2865 22.3446C27.2836 22.351 27.2809 22.3574 27.2783 22.364C27.2529 22.4261 27.2529 22.4961 27.2529 22.6352C27.2529 23.9014 27.2529 24.5343 27.6243 24.9325C27.6617 24.9726 27.7011 25.0102 27.7429 25.0454C28.1586 25.3963 28.7868 25.3615 30.0425 25.2911L31.1782 25.2276C32.0732 25.1775 32.521 25.1524 32.8413 24.926C32.9925 24.819 33.1208 24.683 33.2185 24.5253C33.4253 24.1906 33.4253 23.7392 33.4253 22.8371V22.7701C33.4253 22.6293 33.4253 22.5589 33.4123 22.4923C33.3945 22.4035 33.3596 22.3191 33.3094 22.2439C33.2724 22.1869 33.2226 22.1372 33.1242 22.0378C32.8979 21.8104 32.7847 21.6969 32.6589 21.6444C32.4909 21.5744 32.3022 21.5744 32.1342 21.6444C32.0081 21.6969 31.8952 21.8104 31.6693 22.0378L31.4954 22.2128C31.2924 22.4171 31.1906 22.5196 31.0675 22.531C31.0414 22.5334 31.0152 22.5328 30.9893 22.5293C30.8665 22.5124 30.7695 22.4061 30.5754 22.1928Z" fill="white"/>
</g>
<path d="M31.7107 20.9608C32.0895 20.9608 32.3965 20.6518 32.3965 20.2706C32.3965 19.8894 32.0895 19.5804 31.7107 19.5804C31.332 19.5804 31.0249 19.8894 31.0249 20.2706C31.0249 20.6518 31.332 20.9608 31.7107 20.9608Z" fill="white"/>
<mask id="mask2_112_170" style="mask-type:alpha" maskUnits="userSpaceOnUse" x="43" y="18" width="7" height="7">
<path d="M43.6482 20.9608C43.6482 19.6594 43.6482 19.0086 44.0501 18.6045C44.4516 18.2 45.0984 18.2 46.3915 18.2H47.0773C48.3704 18.2 49.0171 18.2 49.4187 18.6045C49.8206 19.0086 49.8206 19.6594 49.8206 20.9608V21.651C49.8206 22.9523 49.8206 23.6032 49.4187 24.0073C49.0171 24.4118 48.3704 24.4118 47.0773 24.4118H46.3915C45.0984 24.4118 44.4516 24.4118 44.0501 24.0073C43.6482 23.6032 43.6482 22.9523 43.6482 21.651V20.9608Z" fill="black"/>
</mask>
<g mask="url(#mask2_112_170)">
<path d="M46.9706 22.1928L46.4573 21.6292C46.0218 21.1513 45.8044 20.9121 45.5212 20.8994C45.2383 20.8862 44.9999 21.1044 44.5233 21.5406L43.8646 22.1434C43.762 22.237 43.7109 22.2839 43.6818 22.3446C43.6789 22.351 43.6761 22.3574 43.6736 22.364C43.6482 22.4261 43.6482 22.4961 43.6482 22.6352C43.6482 23.9014 43.6482 24.5343 44.0196 24.9325C44.0569 24.9726 44.0964 25.0102 44.1382 25.0454C44.5538 25.3963 45.182 25.3615 46.4378 25.2911L47.5735 25.2276C48.4685 25.1775 48.9163 25.1524 49.2366 24.926C49.3878 24.819 49.5161 24.683 49.6138 24.5253C49.8206 24.1906 49.8206 23.7392 49.8206 22.8371V22.7701C49.8206 22.6293 49.8206 22.5589 49.8075 22.4923C49.7898 22.4035 49.7548 22.3191 49.7047 22.2439C49.6676 22.1869 49.6179 22.1372 49.5195 22.0378C49.2932 21.8104 49.18 21.6969 49.0542 21.6444C48.8862 21.5744 48.6975 21.5744 48.5295 21.6444C48.4033 21.6969 48.2905 21.8104 48.0645 22.0378L47.8907 22.2128C47.6877 22.4171 47.5858 22.5196 47.4627 22.531C47.4367 22.5334 47.4104 22.5328 47.3845 22.5293C47.2618 22.5124 47.1647 22.4061 46.9706 22.1928Z" fill="white"/>
</g>
<path d="M48.106 20.9608C48.4848 20.9608 48.7918 20.6518 48.7918 20.2706C48.7918 19.8894 48.4848 19.5804 48.106 19.5804C47.7272 19.5804 47.4202 19.8894 47.4202 20.2706C47.4202 20.6518 47.7272 20.9608 48.106 20.9608Z" fill="white"/>
<rect x="7.5" y="8.5" width="12" height="5" rx="2.5" fill="white" stroke="#181818"/>
<path d="M24.375 41.875C24.375 40.2505 25.0203 38.6926 26.169 37.544C27.3176 36.3953 28.8755 35.75 30.5 35.75C32.1245 35.75 33.6824 36.3953 34.831 37.544C35.9797 38.6926 36.625 40.2505 36.625 41.875V47.125C36.625 47.9293 36.4666 48.7258 36.1588 49.4689C35.851 50.2121 35.3998 50.8873 34.831 51.456C34.2623 52.0248 33.5871 52.476 32.8439 52.7838C32.1008 53.0916 31.3043 53.25 30.5 53.25C29.6957 53.25 28.8992 53.0916 28.1561 52.7838C27.4129 52.476 26.7377 52.0248 26.169 51.456C25.6002 50.8873 25.149 50.2121 24.8412 49.4689C24.5334 48.7258 24.375 47.9293 24.375 47.125V41.875Z" stroke="black"/>
<path d="M29.1875 41.4375C29.1875 41.0894 29.3258 40.7556 29.5719 40.5094C29.8181 40.2633 30.1519 40.125 30.5 40.125C30.8481 40.125 31.1819 40.2633 31.4281 40.5094C31.6742 40.7556 31.8125 41.0894 31.8125 41.4375V43.1875C31.8125 43.5356 31.6742 43.8694 31.4281 44.1156C31.1819 44.3617 30.8481 44.5 30.5 44.5C30.1519 44.5 29.8181 44.3617 29.5719 44.1156C29.3258 43.8694 29.1875 43.5356 29.1875 43.1875V41.4375Z" stroke="black"/>
<path d="M30.5 35.75V40.125" stroke="black" stroke-linecap="round"/>
</svg>
