<svg width="60" height="60" viewBox="0 0 60 60" fill="none" xmlns="http://www.w3.org/2000/svg">
<rect width="60" height="60" fill="white"/>
<path d="M39.6655 41.144C39.0569 41.144 38.5142 40.9973 38.0375 40.704C37.5609 40.418 37.1905 40.0183 36.9265 39.505C36.6625 38.9917 36.5305 38.4123 36.5305 37.767C36.5305 37.1217 36.6625 36.5423 36.9265 36.029C37.1905 35.5157 37.5609 35.116 38.0375 34.83C38.5142 34.5367 39.0569 34.39 39.6655 34.39C40.4942 34.39 41.1102 34.6613 41.5135 35.204V31.75H43.4715V40.99H41.5135V40.33C41.1102 40.8727 40.4942 41.144 39.6655 41.144ZM39.9735 39.472C40.4502 39.472 40.8315 39.3143 41.1175 38.999C41.4035 38.6763 41.5465 38.2657 41.5465 37.767C41.5465 37.2683 41.4035 36.8613 41.1175 36.546C40.8315 36.2233 40.4502 36.062 39.9735 36.062C39.5115 36.062 39.1412 36.2233 38.8625 36.546C38.5839 36.8613 38.4445 37.2683 38.4445 37.767C38.4445 38.2657 38.5839 38.6763 38.8625 38.999C39.1412 39.3143 39.5115 39.472 39.9735 39.472Z" fill="#E6E8EC"/>
<path d="M34.4129 31.431C34.7575 31.431 35.0435 31.5447 35.2709 31.772C35.4982 31.9993 35.6119 32.2853 35.6119 32.63C35.6119 32.9747 35.4982 33.2607 35.2709 33.488C35.0435 33.7153 34.7575 33.829 34.4129 33.829C34.0682 33.829 33.7822 33.7153 33.5549 33.488C33.3275 33.2607 33.2139 32.9747 33.2139 32.63C33.2139 32.2853 33.3275 31.9993 33.5549 31.772C33.7822 31.5447 34.0682 31.431 34.4129 31.431ZM35.3919 41.012H33.4339V34.544H35.3919V41.012Z" fill="#E6E8EC"/>
<path d="M27.8694 34.544H29.8274V35.204C30.2307 34.6613 30.8321 34.39 31.6314 34.39C31.9834 34.39 32.2657 34.4267 32.4784 34.5L32.5004 36.337C32.2217 36.1903 31.8881 36.117 31.4994 36.117C30.9787 36.117 30.5681 36.2563 30.2674 36.535C29.9741 36.8137 29.8274 37.1987 29.8274 37.69V40.99H27.8694V34.544Z" fill="#E6E8EC"/>
<path d="M21.9796 31.794C22.7423 31.794 23.4353 31.926 24.0586 32.19C24.6893 32.454 25.2136 32.8133 25.6316 33.268C26.0569 33.7227 26.3576 34.2323 26.5336 34.797H24.3336C24.1356 34.4523 23.8313 34.1737 23.4206 33.961C23.0173 33.741 22.5516 33.631 22.0236 33.631C21.4883 33.631 21.0043 33.7557 20.5716 34.005C20.1389 34.247 19.7979 34.588 19.5486 35.028C19.3066 35.4607 19.1856 35.952 19.1856 36.502C19.1856 37.052 19.3066 37.5507 19.5486 37.998C19.7979 38.438 20.1389 38.7827 20.5716 39.032C21.0043 39.2813 21.4883 39.406 22.0236 39.406C22.4709 39.406 22.8779 39.3253 23.2446 39.164C23.6113 39.0027 23.9083 38.79 24.1356 38.526C24.3703 38.2547 24.5243 37.9687 24.5976 37.668H21.8586V35.974H26.7316V36.502C26.7316 37.3967 26.5226 38.2033 26.1046 38.922C25.6939 39.6333 25.1256 40.1907 24.3996 40.594C23.6809 41.0047 22.8743 41.21 21.9796 41.21C21.0703 41.21 20.2489 41.0047 19.5156 40.594C18.7896 40.1907 18.2176 39.6333 17.7996 38.922C17.3889 38.2033 17.1836 37.3967 17.1836 36.502C17.1836 35.6073 17.3889 34.8043 17.7996 34.093C18.2176 33.3743 18.7896 32.8133 19.5156 32.41C20.2489 31.9993 21.0703 31.794 21.9796 31.794Z" fill="#E6E8EC"/>
<path d="M52.5237 20.796H49.6087V27.99H47.6067V20.796H44.6917V19.025H52.5237V20.796Z" fill="#E6E8EC"/>
<path d="M40.51 18.805C41.17 18.805 41.7676 18.9297 42.303 19.179C42.8383 19.4283 43.2636 19.7767 43.579 20.224C43.9016 20.664 44.0776 21.1663 44.107 21.731H42.039C41.9803 21.335 41.808 21.027 41.522 20.807C41.236 20.587 40.8546 20.477 40.378 20.477C39.9233 20.477 39.5676 20.5613 39.311 20.73C39.0543 20.8913 38.926 21.1113 38.926 21.39C38.926 21.61 39.0066 21.7897 39.168 21.929C39.3293 22.0683 39.575 22.193 39.905 22.303C40.2423 22.4057 40.73 22.523 41.368 22.655C42.358 22.8603 43.0656 23.2013 43.491 23.678C43.9236 24.1473 44.14 24.7377 44.14 25.449C44.14 26.0063 43.9786 26.494 43.656 26.912C43.3406 27.33 42.908 27.649 42.358 27.869C41.808 28.0963 41.1956 28.21 40.521 28.21C39.7876 28.21 39.1276 28.0817 38.541 27.825C37.9616 27.5757 37.4996 27.2163 37.155 26.747C36.8176 26.2777 36.6343 25.7277 36.605 25.097H38.662C38.7206 25.5297 38.926 25.878 39.278 26.142C39.6373 26.3987 40.0993 26.527 40.664 26.527C41.0746 26.527 41.412 26.4353 41.676 26.252C41.9473 26.0687 42.083 25.8303 42.083 25.537C42.083 25.3023 42.0096 25.108 41.863 24.954C41.7236 24.8 41.4963 24.668 41.181 24.558C40.873 24.448 40.4403 24.3417 39.883 24.239C38.8783 24.0483 38.1266 23.7293 37.628 23.282C37.1293 22.8347 36.88 22.204 36.88 21.39C36.88 20.862 37.0376 20.4037 37.353 20.015C37.6756 19.6263 38.112 19.3293 38.662 19.124C39.212 18.9113 39.828 18.805 40.51 18.805Z" fill="#E6E8EC"/>
<path d="M27.3416 19.025H29.3436V24.019C29.3436 24.7377 29.5306 25.317 29.9046 25.757C30.2859 26.1897 30.7992 26.406 31.4446 26.406C32.0899 26.406 32.5996 26.1897 32.9736 25.757C33.3549 25.317 33.5456 24.7377 33.5456 24.019V19.025H35.5476V24.019C35.5476 24.855 35.3752 25.592 35.0306 26.23C34.6932 26.8607 34.2129 27.3483 33.5896 27.693C32.9736 28.0377 32.2586 28.21 31.4446 28.21C30.6306 28.21 29.9119 28.0377 29.2886 27.693C28.6726 27.3483 28.1922 26.8607 27.8476 26.23C27.5102 25.592 27.3416 24.855 27.3416 24.019V19.025Z" fill="#E6E8EC"/>
<path d="M21.422 28.21C20.5054 28.21 19.6767 28.0047 18.936 27.594C18.2027 27.1907 17.627 26.6333 17.209 25.922C16.791 25.2033 16.582 24.3967 16.582 23.502C16.582 22.6073 16.791 21.8043 17.209 21.093C17.627 20.3743 18.2027 19.8133 18.936 19.41C19.6767 18.9993 20.5054 18.794 21.422 18.794C22.3387 18.794 23.1637 18.9993 23.897 19.41C24.6377 19.8133 25.217 20.3743 25.635 21.093C26.053 21.8043 26.262 22.6073 26.262 23.502C26.262 24.3967 26.053 25.2033 25.635 25.922C25.217 26.6333 24.6377 27.1907 23.897 27.594C23.1637 28.0047 22.3387 28.21 21.422 28.21ZM21.422 26.406C21.9574 26.406 22.4414 26.2813 22.874 26.032C23.3067 25.7827 23.644 25.438 23.886 24.998C24.1354 24.5507 24.26 24.052 24.26 23.502C24.26 22.9447 24.1354 22.446 23.886 22.006C23.644 21.566 23.3067 21.2213 22.874 20.972C22.4414 20.7227 21.9574 20.598 21.422 20.598C20.8867 20.598 20.4027 20.7227 19.97 20.972C19.5374 21.2213 19.1964 21.566 18.947 22.006C18.705 22.446 18.584 22.9447 18.584 23.502C18.584 24.052 18.705 24.5507 18.947 24.998C19.1964 25.438 19.5374 25.7827 19.97 26.032C20.4027 26.2813 20.8867 26.406 21.422 26.406Z" fill="#E6E8EC"/>
<path d="M16.3117 20.796H13.3967V27.99H11.3947V20.796H8.47974V19.025H16.3117V20.796Z" fill="#E6E8EC"/>
</svg>
