<svg width="60" height="60" viewBox="0 0 60 60" fill="none" xmlns="http://www.w3.org/2000/svg">
<rect width="60" height="60" fill="white"/>
<path d="M53.5176 30.227H52.2416V34.99H50.2836V30.227H49.0076V28.544H50.2836V26.63H52.2416V28.544H53.5176V30.227Z" fill="#181818"/>
<path d="M43.8215 28.544H45.7795V29.204C46.1829 28.6613 46.7842 28.39 47.5835 28.39C47.9355 28.39 48.2179 28.4267 48.4305 28.5L48.4525 30.337C48.1739 30.1903 47.8402 30.117 47.4515 30.117C46.9309 30.117 46.5202 30.2563 46.2195 30.535C45.9262 30.8137 45.7795 31.1987 45.7795 31.69V34.99H43.8215V28.544Z" fill="#181818"/>
<path d="M38.5376 35.144C37.9289 35.144 37.3863 34.9973 36.9096 34.704C36.4329 34.418 36.0626 34.0183 35.7986 33.505C35.5346 32.9917 35.4026 32.4123 35.4026 31.767C35.4026 31.1217 35.5346 30.5423 35.7986 30.029C36.0626 29.5157 36.4329 29.116 36.9096 28.83C37.3863 28.5367 37.9289 28.39 38.5376 28.39C39.3663 28.39 39.9823 28.6613 40.3856 29.204V28.544H42.3436V34.99H40.3856V34.33C39.9823 34.8727 39.3663 35.144 38.5376 35.144ZM38.8456 33.472C39.3223 33.472 39.7036 33.3143 39.9896 32.999C40.2756 32.6763 40.4186 32.2657 40.4186 31.767C40.4186 31.2683 40.2756 30.8613 39.9896 30.546C39.7036 30.2233 39.3223 30.062 38.8456 30.062C38.3836 30.062 38.0133 30.2233 37.7346 30.546C37.4559 30.8613 37.3166 31.2683 37.3166 31.767C37.3166 32.2657 37.4559 32.6763 37.7346 32.999C38.0133 33.3143 38.3836 33.472 38.8456 33.472Z" fill="#181818"/>
<path d="M28.1272 25.75H30.0852V29.204C30.4885 28.6613 31.0899 28.39 31.8892 28.39C32.3879 28.39 32.8279 28.5073 33.2092 28.742C33.5905 28.9693 33.8839 29.2993 34.0892 29.732C34.3019 30.1647 34.4082 30.6743 34.4082 31.261V34.99H32.4502V31.591C32.4502 31.0997 32.3512 30.7257 32.1532 30.469C31.9625 30.205 31.6839 30.073 31.3172 30.073C30.9359 30.073 30.6352 30.216 30.4152 30.502C30.1952 30.788 30.0852 31.1803 30.0852 31.679V34.99H28.1272V25.75Z" fill="#181818"/>
<path d="M27.0717 32.669C26.9031 33.417 26.5291 34.0147 25.9497 34.462C25.3704 34.9167 24.6737 35.144 23.8597 35.144C23.2071 35.144 22.6204 34.9973 22.0997 34.704C21.5791 34.418 21.1721 34.0183 20.8787 33.505C20.5854 32.9917 20.4387 32.4123 20.4387 31.767C20.4387 31.1217 20.5854 30.5423 20.8787 30.029C21.1721 29.5157 21.5791 29.116 22.0997 28.83C22.6204 28.5367 23.2071 28.39 23.8597 28.39C24.4097 28.39 24.9121 28.5 25.3667 28.72C25.8214 28.9327 26.1954 29.226 26.4887 29.6C26.7821 29.974 26.9654 30.3883 27.0387 30.843H25.0587C24.9781 30.6157 24.8314 30.436 24.6187 30.304C24.4134 30.1647 24.1604 30.095 23.8597 30.095C23.4051 30.095 23.0384 30.2527 22.7597 30.568C22.4884 30.876 22.3527 31.2757 22.3527 31.767C22.3527 32.2583 22.4884 32.6617 22.7597 32.977C23.0384 33.285 23.4051 33.439 23.8597 33.439C24.1604 33.439 24.4171 33.3693 24.6297 33.23C24.8497 33.0907 25.0037 32.9037 25.0917 32.669H27.0717Z" fill="#181818"/>
<path d="M19.5406 29.864V31.514H15.3276V29.864H19.5406Z" fill="#181818"/>
<path d="M11.0642 35.144C10.4189 35.144 9.83956 34.9973 9.32623 34.704C8.82023 34.418 8.42423 34.0183 8.13823 33.505C7.85223 32.9917 7.70923 32.4123 7.70923 31.767C7.70923 31.1217 7.85223 30.5423 8.13823 30.029C8.42423 29.5157 8.82023 29.116 9.32623 28.83C9.83956 28.5367 10.4189 28.39 11.0642 28.39C11.7096 28.39 12.2852 28.5367 12.7912 28.83C13.3046 29.116 13.7042 29.5157 13.9902 30.029C14.2762 30.5423 14.4192 31.1217 14.4192 31.767C14.4192 31.9797 14.4046 32.1887 14.3752 32.394H9.65623C9.72956 32.768 9.8909 33.0577 10.1402 33.263C10.3896 33.4683 10.6976 33.571 11.0642 33.571C11.3429 33.571 11.5886 33.527 11.8012 33.439C12.0212 33.3437 12.1716 33.219 12.2522 33.065H14.2212C14.1112 33.4757 13.9059 33.835 13.6052 34.143C13.3046 34.4583 12.9342 34.704 12.4942 34.88C12.0542 35.056 11.5776 35.144 11.0642 35.144ZM12.5052 31.129C12.4246 30.7403 12.2596 30.447 12.0102 30.249C11.7609 30.0437 11.4456 29.941 11.0642 29.941C10.6829 29.941 10.3712 30.0437 10.1292 30.249C9.88723 30.447 9.7259 30.7403 9.64523 31.129H12.5052Z" fill="#181818"/>
</svg>
