<svg width="60" height="60" viewBox="0 0 60 60" fill="none" xmlns="http://www.w3.org/2000/svg">
<rect width="60" height="60" fill="white"/>
<circle cx="30" cy="30" r="12.4091" fill="white" stroke="#181818" stroke-width="1.18182"/>
<path d="M31.0076 32.1207H28.9926L28.2451 23.2644H31.7551L31.0076 32.1207ZM30.0001 33.3069C30.4985 33.3069 30.9101 33.4694 31.2351 33.7944C31.5601 34.1194 31.7226 34.5311 31.7226 35.0294C31.7226 35.5277 31.5601 35.934 31.2351 36.2482C30.9101 36.5732 30.4985 36.7357 30.0001 36.7357C29.5018 36.7357 29.0901 36.5732 28.7651 36.2482C28.4401 35.934 28.2776 35.5277 28.2776 35.0294C28.2776 34.5311 28.4401 34.1194 28.7651 33.7944C29.0901 33.4694 29.5018 33.3069 30.0001 33.3069Z" fill="#181818"/>
</svg>
