<svg width="60" height="60" viewBox="0 0 60 60" fill="none" xmlns="http://www.w3.org/2000/svg">
<rect width="60" height="60" fill="white"/>
<path d="M18.9208 24.526C19.7431 24.526 20.4705 24.7474 21.1031 25.1902C21.7446 25.6239 22.2462 26.279 22.6076 27.1555C22.9691 28.023 23.1498 29.0848 23.1498 30.3408C23.1498 31.5968 22.9691 32.6586 22.6076 33.5261C22.2462 34.3935 21.7446 35.0441 21.1031 35.4779C20.4705 35.9206 19.7431 36.142 18.9208 36.142C18.0985 36.142 17.3666 35.9206 16.725 35.4779C16.0925 35.0441 15.5955 34.3935 15.2341 33.5261C14.8726 32.6586 14.6919 31.5968 14.6919 30.3408C14.6919 29.0848 14.8726 28.023 15.2341 27.1555C15.5955 26.279 16.0925 25.6239 16.725 25.1902C17.3666 24.7474 18.0985 24.526 18.9208 24.526ZM18.9208 26.6811C18.3516 26.6811 17.8907 26.9884 17.5383 27.6028C17.1949 28.2173 17.0232 29.1299 17.0232 30.3408C17.0232 31.5426 17.1949 32.4507 17.5383 33.0652C17.8907 33.6797 18.3516 33.9869 18.9208 33.9869C19.4901 33.9869 19.9464 33.6797 20.2898 33.0652C20.6422 32.4507 20.8184 31.5426 20.8184 30.3408C20.8184 29.1299 20.6422 28.2173 20.2898 27.6028C19.9464 26.9884 19.4901 26.6811 18.9208 26.6811Z" fill="#181818"/>
<path d="M25.3664 36.9554H23.5637L24.0517 33.4448H26.2068L25.3664 36.9554Z" fill="#181818"/>
<path d="M49.7712 24.526C50.5935 24.526 51.3209 24.7474 51.9534 25.1902C52.595 25.6239 53.0965 26.279 53.4579 27.1555C53.8194 28.023 54.0001 29.0848 54.0001 30.3408C54.0001 31.5968 53.8194 32.6586 53.4579 33.5261C53.0965 34.3935 52.595 35.0441 51.9534 35.4779C51.3209 35.9206 50.5935 36.142 49.7712 36.142C48.9489 36.142 48.217 35.9206 47.5754 35.4779C46.9428 35.0441 46.4459 34.3935 46.0844 33.5261C45.723 32.6586 45.5422 31.5968 45.5422 30.3408C45.5422 29.0848 45.723 28.023 46.0844 27.1555C46.4459 26.279 46.9428 25.6239 47.5754 25.1902C48.217 24.7474 48.9489 24.526 49.7712 24.526ZM49.7712 26.6811C49.2019 26.6811 48.741 26.9884 48.3886 27.6028C48.0453 28.2173 47.8736 29.1299 47.8736 30.3408C47.8736 31.5426 48.0453 32.4507 48.3886 33.0652C48.741 33.6797 49.2019 33.9869 49.7712 33.9869C50.3405 33.9869 50.7968 33.6797 51.1402 33.0652C51.4926 32.4507 51.6688 31.5426 51.6688 30.3408C51.6688 29.1299 51.4926 28.2173 51.1402 27.6028C50.7968 26.9884 50.3405 26.6811 49.7712 26.6811Z" fill="#181818"/>
<path d="M40.5698 26.1858C41.3289 26.1858 42.0021 26.3259 42.5894 26.606C43.1768 26.8861 43.6331 27.2792 43.9584 27.7852C44.2837 28.2822 44.4463 28.856 44.4463 29.5066C44.4463 29.9132 44.356 30.2882 44.1753 30.6316C44.0036 30.975 43.7731 31.2551 43.484 31.472C43.2039 31.6888 42.9057 31.8244 42.5894 31.8786C42.9418 31.9328 43.2807 32.0684 43.606 32.2852C43.9403 32.5021 44.2114 32.7867 44.4192 33.1391C44.6361 33.4916 44.7445 33.8937 44.7445 34.3455C44.7445 35.0413 44.5638 35.6512 44.2024 36.1753C43.8409 36.6904 43.3484 37.088 42.7249 37.3681C42.1105 37.6572 41.4192 37.8018 40.6511 37.8018C39.4493 37.8018 38.487 37.4901 37.7641 36.8666C37.0412 36.2431 36.6346 35.3937 36.5442 34.3184H38.9704C39.0156 34.7702 39.1782 35.1181 39.4584 35.362C39.7475 35.606 40.1451 35.728 40.6511 35.728C41.1572 35.728 41.5638 35.6015 41.871 35.3485C42.1873 35.0955 42.3454 34.7657 42.3454 34.359C42.3454 33.9072 42.1692 33.5593 41.8168 33.3154C41.4734 33.0714 41.0081 32.9494 40.4207 32.9494H39.3228V30.9433H40.4207C40.9177 30.9433 41.3063 30.8214 41.5864 30.5774C41.8755 30.3244 42.0201 29.9855 42.0201 29.5608C42.0201 29.1542 41.8891 28.8334 41.6271 28.5985C41.374 28.3635 41.0171 28.246 40.5563 28.246C40.1045 28.246 39.7566 28.3997 39.5126 28.7069C39.2686 29.0141 39.1466 29.3801 39.1466 29.8048H36.7204C36.7204 29.109 36.883 28.49 37.2083 27.9478C37.5337 27.3966 37.99 26.9674 38.5773 26.6602C39.1647 26.3439 39.8288 26.1858 40.5698 26.1858Z" fill="url(#paint0_linear_148_2)"/>
<path d="M31.1074 20.7485C31.9297 20.7485 32.6571 20.9699 33.2896 21.4127C33.9312 21.8464 34.4327 22.5016 34.7941 23.3781C35.1556 24.2455 35.3363 25.3073 35.3363 26.5633C35.3363 27.8194 35.1556 28.8811 34.7941 29.7486C34.4327 30.6161 33.9312 31.2667 33.2896 31.7004C32.6571 32.1432 31.9297 32.3646 31.1074 32.3646C30.2851 32.3646 29.5531 32.1432 28.9116 31.7004C28.279 31.2667 27.782 30.6161 27.4206 29.7486C27.0591 28.8811 26.8784 27.8194 26.8784 26.5633C26.8784 25.3073 27.0591 24.2455 27.4206 23.3781C27.782 22.5016 28.279 21.8464 28.9116 21.4127C29.5531 20.9699 30.2851 20.7485 31.1074 20.7485ZM31.1074 22.9037C30.5381 22.9037 30.0772 23.2109 29.7248 23.8254C29.3814 24.4398 29.2098 25.3525 29.2098 26.5633C29.2098 27.7651 29.3814 28.6733 29.7248 29.2877C30.0772 29.9022 30.5381 30.2094 31.1074 30.2094C31.6766 30.2094 32.133 29.9022 32.4763 29.2877C32.8288 28.6733 33.005 27.7651 33.005 26.5633C33.005 25.3525 32.8288 24.4398 32.4763 23.8254C32.133 23.2109 31.6766 22.9037 31.1074 22.9037Z" fill="url(#paint1_linear_148_2)"/>
<path d="M9.44848 24.526C10.2075 24.526 10.8807 24.6661 11.4681 24.9462C12.0554 25.2263 12.5117 25.6194 12.8371 26.1254C13.1624 26.6224 13.325 27.1962 13.325 27.8468C13.325 28.2534 13.2346 28.6284 13.0539 28.9718C12.8822 29.3152 12.6518 29.5953 12.3627 29.8122C12.0825 30.029 11.7843 30.1646 11.4681 30.2188C11.8205 30.273 12.1593 30.4086 12.4846 30.6254C12.819 30.8423 13.0901 31.1269 13.2979 31.4794C13.5148 31.8318 13.6232 32.2339 13.6232 32.6857C13.6232 33.3815 13.4425 33.9914 13.081 34.5155C12.7196 35.0306 12.2271 35.4282 11.6036 35.7083C10.9891 35.9975 10.2979 36.142 9.5298 36.142C8.32799 36.142 7.36563 35.8303 6.64274 35.2068C5.91984 34.5833 5.51321 33.7339 5.42285 32.6586H7.84907C7.89425 33.1104 8.0569 33.4583 8.33703 33.7023C8.62618 33.9462 9.02378 34.0682 9.5298 34.0682C10.0358 34.0682 10.4425 33.9417 10.7497 33.6887C11.066 33.4357 11.2241 33.1059 11.2241 32.6992C11.2241 32.2474 11.0479 31.8995 10.6955 31.6556C10.3521 31.4116 9.88673 31.2896 9.29938 31.2896H8.20148V29.2836H9.29938C9.79637 29.2836 10.1849 29.1616 10.465 28.9176C10.7542 28.6646 10.8988 28.3257 10.8988 27.901C10.8988 27.4944 10.7678 27.1736 10.5057 26.9387C10.2527 26.7037 9.89577 26.5863 9.43492 26.5863C8.98311 26.5863 8.63522 26.7399 8.39124 27.0471C8.14727 27.3543 8.02528 27.7203 8.02528 28.145H5.59906C5.59906 27.4492 5.76171 26.8302 6.08701 26.2881C6.41232 25.7369 6.86864 25.3076 7.456 25.0004C8.04335 24.6841 8.70751 24.526 9.44848 24.526Z" fill="#181818"/>
<path d="M31.1209 41.121C31.0306 41.1572 30.9266 41.1753 30.8092 41.1753C30.0953 41.1753 29.4357 41.0171 28.8302 40.7009C28.2338 40.3846 27.7594 39.9418 27.407 39.3725C27.0546 38.8033 26.8784 38.1572 26.8784 37.4343C26.8784 36.6662 27.0637 35.9885 27.4341 35.4011C27.8137 34.8138 28.3197 34.362 28.9522 34.0457C29.5938 33.7204 30.2986 33.5577 31.0667 33.5577C31.8348 33.5577 32.5351 33.7204 33.1676 34.0457C33.8092 34.362 34.3152 34.8138 34.6857 35.4011C35.0652 35.9794 35.255 36.6526 35.255 37.4207C35.255 37.9267 35.1736 38.4057 35.011 38.8575C34.8483 39.3002 34.5953 39.7972 34.252 40.3484L31.4056 44.862H28.6134L31.1209 41.121ZM31.0667 39.1692C31.6089 39.1692 32.0426 39.002 32.3679 38.6677C32.6932 38.3334 32.8559 37.9132 32.8559 37.4072C32.8559 36.9011 32.6932 36.4809 32.3679 36.1466C32.0426 35.8123 31.6089 35.6451 31.0667 35.6451C30.5245 35.6451 30.0908 35.8123 29.7655 36.1466C29.4402 36.4809 29.2775 36.9011 29.2775 37.4072C29.2775 37.9132 29.4402 38.3334 29.7655 38.6677C30.0908 39.002 30.5245 39.1692 31.0667 39.1692Z" fill="url(#paint2_linear_148_2)"/>
<path d="M41.2341 22.9254H36.2732V20.8923L40.5428 14.1016H43.5654V20.8923H45.0157V22.9254H43.5654V25.1483H41.2341V22.9254ZM41.2341 20.8923V16.6362L38.6316 20.8923H41.2341Z" fill="url(#paint3_linear_148_2)"/>
<defs>
<linearGradient id="paint0_linear_148_2" x1="40.6444" y1="32.7677" x2="40.6444" y2="37.1198" gradientUnits="userSpaceOnUse">
<stop stop-color="#181818"/>
<stop offset="1" stop-color="#181818" stop-opacity="0"/>
</linearGradient>
<linearGradient id="paint1_linear_148_2" x1="31.1074" y1="22.0643" x2="31.1074" y2="28.5517" gradientUnits="userSpaceOnUse">
<stop offset="0.208269" stop-color="#181818" stop-opacity="0"/>
<stop offset="1" stop-color="#181818"/>
</linearGradient>
<linearGradient id="paint2_linear_148_2" x1="31.0667" y1="31.2149" x2="31.0667" y2="37.2632" gradientUnits="userSpaceOnUse">
<stop stop-color="#181818"/>
<stop offset="1" stop-color="#181818" stop-opacity="0"/>
</linearGradient>
<linearGradient id="paint3_linear_148_2" x1="40.6445" y1="23.4438" x2="40.6445" y2="27.4929" gradientUnits="userSpaceOnUse">
<stop stop-color="#181818" stop-opacity="0"/>
<stop offset="1" stop-color="#181818"/>
</linearGradient>
</defs>
</svg>
