<svg width="60" height="60" viewBox="0 0 60 60" fill="none" xmlns="http://www.w3.org/2000/svg">
<rect width="60" height="60" fill="white"/>
<mask id="mask0_109_108" style="mask-type:alpha" maskUnits="userSpaceOnUse" x="14" y="14" width="32" height="32">
<circle cx="30" cy="30" r="16" fill="#E6E8EC"/>
</mask>
<g mask="url(#mask0_109_108)">
<circle cx="30" cy="30" r="16" fill="#181818"/>
<path d="M19.6497 39.8133C19.7248 39.833 19.8046 39.8221 19.8718 39.783C19.939 39.7439 19.9881 39.6797 20.0086 39.6043C20.6127 37.3355 23.0679 36.7475 24.5353 36.3957C24.903 36.3077 25.1934 36.238 25.3822 36.156C27.0538 35.4257 27.5986 34.2509 27.7617 33.3937C27.7714 33.3427 27.7675 33.29 27.7505 33.241C27.7336 33.1919 27.704 33.1483 27.6649 33.1144C26.7945 32.3581 26.0602 31.2229 25.5969 29.917C25.5838 29.8795 25.5632 29.8452 25.5365 29.816C24.9236 29.1454 24.5717 28.4363 24.5717 27.8713C24.5717 27.5413 24.6954 27.3199 24.974 27.1529C25.0157 27.1278 25.0506 27.0926 25.0755 27.0506C25.1004 27.0085 25.1145 26.9609 25.1165 26.912C25.2461 23.9047 27.374 21.5373 29.984 21.5219L30.0467 21.5261C32.6696 21.5627 34.784 23.9808 34.8596 27.0307C34.8607 27.0724 34.8705 27.1133 34.8885 27.1509C34.9065 27.1885 34.9323 27.2217 34.964 27.2485C35.1476 27.405 35.2332 27.6033 35.2332 27.8725C35.2332 28.3454 34.9828 28.9269 34.5288 29.509C34.5072 29.537 34.4905 29.5686 34.4796 29.6023C34.0104 31.0995 33.1681 32.4213 32.1699 33.2301C32.1285 33.2637 32.097 33.308 32.0786 33.3582C32.0602 33.4084 32.0557 33.4627 32.0655 33.5153C32.2285 34.3719 32.7734 35.5461 34.445 36.2776C34.6426 36.3638 34.9494 36.4311 35.3382 36.5155C36.791 36.832 39.2221 37.3627 39.8186 39.6043C39.8286 39.6418 39.8458 39.6769 39.8693 39.7076C39.8928 39.7383 39.9221 39.7641 39.9554 39.7835C39.9888 39.8028 40.0257 39.8154 40.0639 39.8204C40.1021 39.8254 40.1409 39.8228 40.1781 39.8127C40.2153 39.8026 40.2502 39.7853 40.2807 39.7616C40.3112 39.738 40.3368 39.7085 40.3561 39.6749C40.3753 39.6413 40.3878 39.6042 40.3927 39.5658C40.3977 39.5273 40.3951 39.4883 40.3851 39.4508C39.696 36.8609 36.9417 36.2605 35.4626 35.9381C35.1195 35.8632 34.8233 35.7988 34.679 35.7351C33.5881 35.258 32.9159 34.5313 32.6784 33.5714C33.6913 32.6958 34.5388 31.3451 35.0233 29.8302C35.5376 29.1572 35.8203 28.4641 35.8203 27.8719C35.8203 27.477 35.6936 27.1476 35.4426 26.8902C35.303 23.5817 32.9576 20.9764 30.0467 20.9345L29.9593 20.9333C27.1013 20.9487 24.7459 23.4855 24.54 26.7367C24.1728 27.0082 23.9863 27.389 23.9863 27.8725C23.9863 28.5709 24.3787 29.4063 25.0655 30.1726C25.54 31.485 26.2755 32.638 27.1511 33.445C26.9148 34.4085 26.242 35.1376 25.1488 35.6152C25.0074 35.6772 24.7259 35.7451 24.3998 35.823C22.9095 36.1796 20.1365 36.8438 19.4421 39.452C19.422 39.5276 19.4326 39.6082 19.4715 39.6759C19.5105 39.7437 19.5745 39.7931 19.6497 39.8133Z" fill="white"/>
<path d="M26.7946 22.6003L28.7393 21.489L30.4062 21.3501L32.0732 21.9057L33.4623 22.8781L34.7125 24.4061L35.2681 27.0454L35.407 28.2956L34.7125 29.5458L34.1568 31.3516L32.4899 33.4353L32.6288 34.5465L34.7125 36.0746L37.9308 36.907L40.1921 38.8857L43.8668 46.235C35.7838 46.235 15.6001 46.8003 15.6001 46.8003L19.4161 39.451L21.9327 36.7691L24.1553 36.4913L26.7946 34.9633L27.4891 33.4353L27.0724 32.7407L25.8222 31.0738L25.1277 30.2403L24.7109 28.8512L24.4331 27.4621L24.7109 26.9065L25.4055 24.545L26.7946 22.6003Z" fill="white"/>
</g>
</svg>
