<svg width="33" height="33" viewBox="0 0 33 33" fill="none" xmlns="http://www.w3.org/2000/svg">
<path d="M9.65771 7.02139L25.6577 16.2614L9.65771 25.5014V7.02139Z" fill="white"/>
<path d="M10.6577 8.75143L17.1577 12.5014L23.6577 16.2514L17.1577 20.0014L10.6577 23.7514V8.74142M9.65771 6.01138C9.13771 6.01138 8.65771 6.43138 8.65771 7.01138V25.4914C8.65771 26.0714 9.13771 26.4914 9.65771 26.4914C9.82771 26.4914 9.99771 26.4514 10.1577 26.3514L18.1577 21.7314L26.1577 17.1114C26.8277 16.7314 26.8277 15.7614 26.1577 15.3814L18.1577 10.7614L10.1577 6.14139C9.99771 6.05139 9.82771 6.00143 9.65771 6.00143V6.01138Z" fill="white"/>
</svg>
