<svg width="32" height="32" viewBox="0 0 32 32" fill="none" xmlns="http://www.w3.org/2000/svg">
<path d="M16 22.937C16.5523 22.937 17 22.4893 17 21.937C17 21.3847 16.5523 20.937 16 20.937C15.4477 20.937 15 21.3847 15 21.937C15 22.4893 15.4477 22.937 16 22.937Z" fill="#181818"/>
<path d="M20.727 25.937H11.273C10.6456 25.8996 10.0584 25.6159 9.63907 25.1477C9.21976 24.6795 9.0023 24.0647 9.034 23.437V8.56299C9.0023 7.93528 9.21976 7.32045 9.63907 6.85227C10.0584 6.38408 10.6456 6.10042 11.273 6.06299H20.727C21.3544 6.10042 21.9416 6.38408 22.3609 6.85227C22.7802 7.32045 22.9977 7.93528 22.966 8.56299V23.437C22.9977 24.0647 22.7802 24.6795 22.3609 25.1477C21.9416 25.6159 21.3544 25.8996 20.727 25.937ZM11.273 7.06299C10.9113 7.10119 10.579 7.27966 10.3473 7.56009C10.1157 7.84052 10.0032 8.20057 10.034 8.56299V23.437C10.0032 23.7994 10.1157 24.1595 10.3473 24.4399C10.579 24.7203 10.9113 24.8988 11.273 24.937H20.727C21.0887 24.8988 21.421 24.7203 21.6527 24.4399C21.8843 24.1595 21.9968 23.7994 21.966 23.437V8.56299C21.9968 8.20057 21.8843 7.84052 21.6527 7.56009C21.421 7.27966 21.0887 7.10119 20.727 7.06299H11.273Z" fill="#181818"/>
</svg>
