<svg width="33" height="33" viewBox="0 0 33 33" fill="none" xmlns="http://www.w3.org/2000/svg">
<path d="M9.65771 6.73999L25.6577 15.98L9.65771 25.22V6.73999Z" fill="#20232D"/>
<path d="M10.6577 8.47003L17.1577 12.22L23.6577 15.97L17.1577 19.72L10.6577 23.47V8.46002M9.65771 5.72998C9.13771 5.72998 8.65771 6.14998 8.65771 6.72998V25.21C8.65771 25.79 9.13771 26.21 9.65771 26.21C9.82771 26.21 9.99771 26.17 10.1577 26.07L18.1577 21.45L26.1577 16.83C26.8277 16.45 26.8277 15.48 26.1577 15.1L18.1577 10.48L10.1577 5.85999C9.99771 5.76999 9.82771 5.72003 9.65771 5.72003V5.72998Z" fill="#20232D"/>
</svg>
