<svg width="60" height="60" viewBox="0 0 60 60" fill="none" xmlns="http://www.w3.org/2000/svg">
<rect width="60" height="60" fill="#E6E8EC"/>
<path opacity="0.5" d="M34.125 36.4286V32.8571H35.5V36.4286H34.125ZM34.125 38.5714V37.1429H35.5V38.5714H34.125ZM19 20H41V36.0045L39.625 33.1473V21.4286H20.375V28.9844L25.1875 23.9955L31.332 30.3795L30.6875 31.7188L25.1875 26.0045L20.375 31.0156V35.7143H28.7646L28.0771 37.1429H19V20ZM36.1875 24.2857C36.0013 24.2857 35.8402 24.215 35.7041 24.0737C35.568 23.9323 35.5 23.7649 35.5 23.5714C35.5 23.378 35.568 23.2106 35.7041 23.0692C35.8402 22.9278 36.0013 22.8571 36.1875 22.8571C36.3737 22.8571 36.5348 22.9278 36.6709 23.0692C36.807 23.2106 36.875 23.378 36.875 23.5714C36.875 23.7649 36.807 23.9323 36.6709 24.0737C36.5348 24.215 36.3737 24.2857 36.1875 24.2857ZM28.625 40L34.8125 27.1429L41 40H28.625ZM30.5693 38.75H39.0557L34.8125 29.933L30.5693 38.75Z" fill="#BABABA"/>
</svg>
